<svg xmlns="http://www.w3.org/2000/svg" width="534.089" height="218.109" viewBox="0 0 534.089 218.109">
  <g id="Group_1554" data-name="Group 1554" transform="translate(-792.803 -302.969)">
    <g id="Group_917" data-name="Group 917" transform="translate(792.803 302.969)">
      <rect id="Rectangle_2614" data-name="Rectangle 2614" width="73.197" height="62.329" rx="12.24" fill="#407ffe"/>
      <g id="Group_916" data-name="Group 916" transform="translate(19.331 12.957)">
        <path id="Path_1147" data-name="Path 1147" d="M545.1,110.952A12.649,12.649,0,1,1,557.753,98.3,12.662,12.662,0,0,1,545.1,110.952Zm0-22.431a9.783,9.783,0,1,0,9.783,9.783A9.793,9.793,0,0,0,545.1,88.521Z" transform="translate(-532.456 -85.655)" fill="#fefef4"/>
        <rect id="Rectangle_2615" data-name="Rectangle 2615" width="2.866" height="5.281" transform="translate(19.552 21.606) rotate(-45)" fill="#fefef4"/>
        <rect id="Rectangle_2616" data-name="Rectangle 2616" width="14.465" height="6.339" rx="2.892" transform="translate(31.56 36.07) rotate(-135)" fill="#fefef4"/>
      </g>
    </g>
    <g id="Group_1553" data-name="Group 1553">
      <path id="Path_1174" data-name="Path 1174" d="M49.335,0A49.335,49.335,0,1,1,0,49.335,49.335,49.335,0,0,1,49.335,0Z" transform="matrix(0.627, -0.779, 0.779, 0.627, 1188.17, 459.255)" fill="#c40007"/>
      <g id="Group_789" data-name="Group 789" transform="translate(1235.752 421.332)">
        <path id="Path_935" data-name="Path 935" d="M545.315,118.409a3.469,3.469,0,0,0-5.574-.283,12.243,12.243,0,0,0-1.515,3.393c-.966,2.987-1.82,6.01-2.762,9.005-.1.323-.482.556-.734.832-.2-.311-.541-.6-.588-.933-.238-1.709-.426-3.427-.585-5.146-.313-3.374-.581-6.752-.891-10.127-.52-5.673-1.042-11.345-1.616-17.012a3.415,3.415,0,0,0-.752-1.757,3.3,3.3,0,0,0-3.828-.682,3.129,3.129,0,0,0-1.7,3.2q.823,9.028,1.671,18.052a2.218,2.218,0,0,1,.04.839c-.075.227-.335.523-.537.542a.864.864,0,0,1-.628-.43,2.2,2.2,0,0,1-.122-.83q-.978-10.483-1.955-20.965a11.472,11.472,0,0,0-.156-1.311,2.443,2.443,0,0,0-2.218-2.112c-2.581-.435-4.3,1.142-4.057,3.754q.953,10.343,1.923,20.684a5.2,5.2,0,0,1,.054,1.22.761.761,0,0,1-.48.54.785.785,0,0,1-.629-.393,3.74,3.74,0,0,1-.177-1.107c-.517-5.515-1.013-11.033-1.554-16.545a3.175,3.175,0,0,0-6.317.61q.8,8.793,1.628,17.582a3.409,3.409,0,0,1,.071,1.029,3.354,3.354,0,0,1-.513.88c-.252-.26-.7-.5-.727-.783-.24-2.124-.392-4.259-.585-6.39-.2-2.257-.392-4.515-.641-6.767a2.979,2.979,0,0,0-3.531-2.595,2.742,2.742,0,0,0-2.542,3.124q.43,6.64.854,13.28h0c.25,2.692.468,5.393.605,8.09a40.894,40.894,0,0,0,3.553,15.616,14.54,14.54,0,0,0,10.9,8.575A21.01,21.01,0,0,0,534.048,150a14.07,14.07,0,0,0,6.474-8.4c1.792-6.831,3.448-13.7,5.075-20.57A3.941,3.941,0,0,0,545.315,118.409Z" transform="translate(-502.784 -92.614)" fill="#fff"/>
      </g>
    </g>
  </g>
</svg>
