<svg xmlns="http://www.w3.org/2000/svg" width="546.317" height="341.205" viewBox="0 0 546.317 341.205">
  <g id="Group_1552" data-name="Group 1552" transform="translate(-792.803 -297.89)">
    <path id="Path_1144" data-name="Path 1144" d="M153.764,371.569l-39.929,20.686,11.5,5.571L111.053,414.9l11.147,9.127L136,405.691l9.25,9.916Z" transform="translate(1088.408 -73.679)" fill="#407ffe"/>
    <g id="Group_1551" data-name="Group 1551">
      <g id="Group_919" data-name="Group 919" transform="translate(1256.686 483.068)">
        <rect id="Rectangle_2617" data-name="Rectangle 2617" width="82.434" height="74.639" rx="14.132" fill="#c40007"/>
        <g id="Group_918" data-name="Group 918" transform="translate(23.754 18.473)">
          <path id="Path_1148" data-name="Path 1148" d="M147.009,112.592A17.463,17.463,0,1,1,164.473,95.13,17.482,17.482,0,0,1,147.009,112.592Zm0-29.678A12.215,12.215,0,1,0,159.224,95.13,12.228,12.228,0,0,0,147.009,82.915Z" transform="translate(-129.546 -77.667)" fill="#fefef4"/>
          <line id="Line_698" data-name="Line 698" x1="20.025" y2="24.43" transform="translate(7.732 5.248)" fill="none" stroke="#fefef4" stroke-miterlimit="10" stroke-width="4.522"/>
        </g>
      </g>
      <g id="Group_937" data-name="Group 937" transform="translate(922.002 452.888)">
        <g id="Group_924" data-name="Group 924" transform="translate(72.056 119.273)">
          <path id="Path_1149" data-name="Path 1149" d="M361.011,299.16l-.431-5.822-36.294,1.784v5.618s-8.163,7.767-11.384,59.436h65.331S385.4,314.448,361.011,299.16Z" transform="translate(-312.902 -293.338)" fill="#216bff"/>
          <g id="Group_923" data-name="Group 923" transform="translate(11.385 5.822)">
            <line id="Line_700" data-name="Line 700" y1="1.581" x2="36.725" fill="none" stroke="#000" stroke-miterlimit="10" stroke-width="1.552"/>
            <path id="Path_1150" data-name="Path 1150" d="M345.453,347.15l7.523,3.063L357,382.763" transform="translate(-337.949 -321.746)" fill="none" stroke="#000" stroke-miterlimit="10" stroke-width="1.552"/>
          </g>
        </g>
        <g id="Group_933" data-name="Group 933" transform="translate(-0.001 44.924)">
          <g id="Group_927" data-name="Group 927" transform="translate(0 9.512)">
            <g id="Group_925" data-name="Group 925" transform="translate(43.263 0.18)">
              <path id="Path_1151" data-name="Path 1151" d="M263.782,260.035l10.026-33.1,22.055,8.268-10.581,31.7a11.285,11.285,0,0,1-21.5-6.867Z" transform="translate(-263.281 -200.81)" fill="#f26e5a"/>
              <path id="Path_1152" data-name="Path 1152" d="M286.863,190.362a11.964,11.964,0,1,1,22.793,7.281l-6.179,18.664-22.055-8.268Z" transform="translate(-270.895 -181.914)" fill="#1f1f1f"/>
            </g>
            <g id="Group_926" data-name="Group 926">
              <path id="Path_1153" data-name="Path 1153" d="M249.518,238.525l-25.189-47.762s.574-8.629-13.761-9.145l0,.013c-.195-.009-.389-.027-.585-.027h-4.791a1.815,1.815,0,0,0-1.823,1.509,1.773,1.773,0,0,0,1.533,2.018l4.833.683-6.575,1.755-1.227.453-8.954-5.916a1.452,1.452,0,0,0-1.774,2.3c.552.461,1.442,1.224,2.411,2.061l-1.976-1.183a1.451,1.451,0,0,0-1.585,2.43c.483.341,1.1.779,1.765,1.243l-.688-.268a1.774,1.774,0,0,0-2.1.584,1.707,1.707,0,0,0,.743,2.548l9.784,4.1a8.085,8.085,0,0,0,5.289.677l8.722-2.056,19.515,54.626Z" transform="translate(-188.725 -181.604)" fill="#f26e5a"/>
              <line id="Line_701" data-name="Line 701" x2="4.662" y2="8.839" transform="translate(50.454 37.319)" fill="none" stroke="#db5749" stroke-miterlimit="10" stroke-width="1.5"/>
            </g>
          </g>
          <g id="Group_928" data-name="Group 928" transform="translate(66.137 9.014)">
            <path id="Path_1154" data-name="Path 1154" d="M315.4,181.543l-9.363.7S292.481,200.634,320,247.866l36.294-1.784,2.735-50.888-4.481-14.447H338.292Z" transform="translate(-302.7 -180.746)" fill="#1f1f1f"/>
            <path id="Path_1155" data-name="Path 1155" d="M305.156,223.042s-2.7-5.68-.966-18.264" transform="translate(-303.082 -190.833)" fill="#1f1f1f" stroke="#fce7e4" stroke-miterlimit="10" stroke-width="1.552"/>
          </g>
          <g id="Group_932" data-name="Group 932" transform="translate(106.542)">
            <g id="Group_930" data-name="Group 930" transform="translate(0 7.829)">
              <path id="Path_1156" data-name="Path 1156" d="M425.738,250.01l-15.073-31.128-20.493,11.611,15.4,29.657a11.286,11.286,0,0,0,20.164-10.141Z" transform="translate(-379.818 -195.568)" fill="#f26e5a"/>
              <g id="Group_929" data-name="Group 929">
                <path id="Path_1157" data-name="Path 1157" d="M395.041,185.409a11.964,11.964,0,1,0-21.376,10.75l9.018,17.47,20.493-11.611Z" transform="translate(-372.33 -178.705)" fill="#1f1f1f"/>
                <line id="Line_702" data-name="Line 702" x1="7.446" y1="14.424" transform="translate(2.908 20.501)" fill="none" stroke="#fce7e4" stroke-miterlimit="10" stroke-width="1.552"/>
              </g>
            </g>
            <g id="Group_931" data-name="Group 931" transform="translate(28.712)">
              <path id="Path_1158" data-name="Path 1158" d="M470.479,174.231a1.774,1.774,0,0,0-2.1-.584L464,175.356l4.112-3.479a1.754,1.754,0,0,0,.357-2.323,1.708,1.708,0,0,0-2.474-.356l-3.826,3.081,3.262-4.265a1.752,1.752,0,0,0-.149-2.345,1.709,1.709,0,0,0-2.493.181l-6.439,6.683-6.575-1.755,4.834-.684a1.772,1.772,0,0,0,1.533-2.018,1.815,1.815,0,0,0-1.823-1.508h-4.792a11.5,11.5,0,0,0-7.688,2.868c-.035.027-.068.045-.1.074-2.94,2.319-1.871,7.071-1.871,7.071l-18.053,51.11,17.892,7.937,10.314-54.887,6.587.012a6.938,6.938,0,0,0,1.227,0h.05l0,0a7,7,0,0,0,2.076-.51l9.784-3.463A1.707,1.707,0,0,0,470.479,174.231Z" transform="translate(-421.809 -165.212)" fill="#f26e5a"/>
              <line id="Line_703" data-name="Line 703" x1="3.899" y2="13.61" transform="translate(3.117 41.223)" fill="none" stroke="#db5749" stroke-miterlimit="10" stroke-width="1.5"/>
            </g>
          </g>
        </g>
        <g id="Group_936" data-name="Group 936" transform="translate(60.106 0.002)">
          <path id="Path_1159" data-name="Path 1159" d="M310.313,106.164c-1.128.774-8.695,2.741-8.845,4.114,0,0,2.489,9.731-.06,11.547-6.893,4.91-9.1,14.536-9.1,14.536s18.184,13.616,66.524-.681c0,0,.579-5.791-8.213-9.994a13.833,13.833,0,0,1-6.15-5.465,10.613,10.613,0,0,1-1.548-4.417C342.112,111.032,328.943,93.384,310.313,106.164Z" transform="translate(-292.308 -93.594)"/>
          <path id="Path_1160" data-name="Path 1160" d="M316.191,130.7a5.8,5.8,0,1,1-6.185-5.38A5.8,5.8,0,0,1,316.191,130.7Z" transform="translate(-297.472 -103.539)" fill="#db5749"/>
          <path id="Path_1161" data-name="Path 1161" d="M329.081,154.011l.8,12.607c.272,4.428,2.083,7.445,6.439,7.142h0c3.718-.259,8.142-3.238,8.347-6.96l-2.217-19.78Z" transform="translate(-307.742 -112.655)" fill="#f26e5a"/>
          <path id="Path_1162" data-name="Path 1162" d="M324.582,181.543l22.889-.8s-.557,11.253-14.161,10.2C323.853,190.213,324.582,181.543,324.582,181.543Z" transform="translate(-305.848 -126.81)" fill="#f26e5a"/>
          <path id="Path_1163" data-name="Path 1163" d="M329.663,166.62l14.629-14.3-15.4,2.626Z" transform="translate(-307.664 -114.878)" fill="#db5749"/>
          <path id="Path_1164" data-name="Path 1164" d="M325.37,132.97h0c-7.448.022-13.6-5.843-13.822-11.925l-.438-14.353a14.14,14.14,0,0,1,13.149-14.623h0c7.79-.542,15.911,5.239,16.453,13.029l.227,11.548C341.114,125.576,334.282,132.349,325.37,132.97Z" transform="translate(-300.196 -89.576)" fill="#f26e5a"/>
          <g id="Group_934" data-name="Group 934" transform="translate(11.819 17.688)">
            <path id="Path_1165" data-name="Path 1165" d="M325.023,133.321l-.432,3.564,1.842.068" transform="translate(-317.677 -124.593)" fill="none" stroke="#000" stroke-linecap="round" stroke-linejoin="round" stroke-width="1.238"/>
            <path id="Path_1166" data-name="Path 1166" d="M335.009,118.308s-4.115-.338-4.157,1.338c0,0,0,1.134,3.594,1.359s4.523-.038,4.851-1.1S336.938,118.318,335.009,118.308Z" transform="translate(-320.305 -118.28)"/>
            <path id="Path_1167" data-name="Path 1167" d="M315.449,122.533s3.117-.251,3.41,1.255c0,0,.175,1.019-2.556,1.176s-3.575-.183-3.626-1.045C312.617,122.891,313.965,122.518,315.449,122.533Z" transform="translate(-312.676 -120.058)"/>
            <path id="Path_1168" data-name="Path 1168" d="M318.668,130.055a1.317,1.317,0,1,1-1.359-1.274A1.317,1.317,0,0,1,318.668,130.055Z" transform="translate(-314.085 -122.687)"/>
            <path id="Path_1169" data-name="Path 1169" d="M337.725,129.432a1.317,1.317,0,1,1-1.36-1.273A1.317,1.317,0,0,1,337.725,129.432Z" transform="translate(-322.084 -122.426)"/>
            <path id="Path_1170" data-name="Path 1170" d="M329.885,143.707s-1.946-.888-4.3,1.141" transform="translate(-318.095 -128.871)" fill="none" stroke="#000" stroke-linecap="round" stroke-linejoin="round" stroke-width="1.238"/>
          </g>
          <path id="Path_1171" data-name="Path 1171" d="M327.53,87.823a17.848,17.848,0,0,0-5.527.584c-4.461,1.188-12.473,4.492-13.845,13.06a6,6,0,0,0-.14,3.016s14.963.587,23.808-3.59c1.273,5.39,2.45,8.725,7.774,13.974l4.726-7.105,5.322,4.773C349.681,112.717,349.675,89,327.53,87.823Z" transform="translate(-298.856 -87.799)"/>
          <g id="Group_935" data-name="Group 935" transform="translate(36.925 21.819)">
            <path id="Path_1172" data-name="Path 1172" d="M367.521,130.8a5.8,5.8,0,1,1-6.185-5.38A5.8,5.8,0,0,1,367.521,130.8Z" transform="translate(-355.942 -125.4)" fill="#f26e5a"/>
            <path id="Path_1173" data-name="Path 1173" d="M362.115,135.471s-.291-4.193,3.763-3.811" transform="translate(-358.531 -128.017)" fill="none" stroke="#000" stroke-linecap="round" stroke-linejoin="round" stroke-width="1.238"/>
          </g>
        </g>
      </g>
      <g id="Group_917" data-name="Group 917" transform="translate(792.803 302.969)">
        <rect id="Rectangle_2614" data-name="Rectangle 2614" width="73.197" height="62.329" rx="12.24" fill="#407ffe"/>
        <g id="Group_916" data-name="Group 916" transform="translate(19.331 12.957)">
          <path id="Path_1147" data-name="Path 1147" d="M545.1,110.952A12.649,12.649,0,1,1,557.753,98.3,12.662,12.662,0,0,1,545.1,110.952Zm0-22.431a9.783,9.783,0,1,0,9.783,9.783A9.793,9.793,0,0,0,545.1,88.521Z" transform="translate(-532.456 -85.655)" fill="#fefef4"/>
          <rect id="Rectangle_2615" data-name="Rectangle 2615" width="2.866" height="5.281" transform="translate(19.552 21.606) rotate(-45)" fill="#fefef4"/>
          <rect id="Rectangle_2616" data-name="Rectangle 2616" width="14.465" height="6.339" rx="2.892" transform="translate(31.56 36.07) rotate(-135)" fill="#fefef4"/>
        </g>
      </g>
    </g>
  </g>
</svg>
