<svg xmlns="http://www.w3.org/2000/svg" xmlns:xlink="http://www.w3.org/1999/xlink" width="443.577" height="323.49" viewBox="0 0 443.577 323.49">
  <defs>
    <clipPath id="clip-path">
      <path id="Path_1179" data-name="Path 1179" d="M435.993,132.327a39.78,39.78,0,0,0-9.852-9.82,145.34,145.34,0,0,0-15.552-8.054l-3.236-18.024a61.055,61.055,0,0,0,8.285-9.8c2.92-4.707,1.955-7.872.127-11.132s-4.465-1.145-4.846.343a33.007,33.007,0,0,0-.52,4.751S408.652,68.6,407.64,65.864s-4.85-.1-4.513.806c0,0-1.157-3.4-3.556-3.449s-3.065,4.035-3.065,4.035-3.068-1.417-4.793.361-.9,6.239-.9,6.239-2.734,1.012-3.159,4.9-.079,10.7,1.027,12.57a19.808,19.808,0,0,1,1.444,2.78c-1.355,16.237-1.308,15.166-1.707,21.648-.281,4.559,2.711,15.158,7.036,19.566s19.644,12.2,19.644,12.2S431.068,143.371,435.993,132.327Z" fill="#fff" stroke="#263238" stroke-linecap="round" stroke-linejoin="round" stroke-width="1.191"/>
    </clipPath>
    <clipPath id="clip-path-2">
      <path id="Path_1190" data-name="Path 1190" d="M396.041,150.971s-4.471.472-5.878,1.676-12.141,10.382-13.88,15.829,4.871,21.728,12.1,28.039,16.232,12.926,23.893,11.554,16.463-13.164,17.371-16.377-29.058-40.037-29.058-40.037S398.453,149.517,396.041,150.971Z" fill="#fff" stroke="#263238" stroke-linecap="round" stroke-linejoin="round" stroke-width="1.191"/>
    </clipPath>
    <clipPath id="clip-path-3">
      <path id="Path_1197" data-name="Path 1197" d="M434.226,129.156s-4.744-1.6-11.8,1.4-24.726,13.377-27.317,22.4c-1.7,5.937,17.029,33.624,28.691,38.18,3.147,1.229,5.992,2.552,12.429-2.685s19.915-19.786,23.443-26.205-1.964-11.189-3.848-14.019S439.183,127.042,434.226,129.156Z" fill="#fff" stroke="#263238" stroke-linecap="round" stroke-linejoin="round" stroke-width="1.191"/>
    </clipPath>
    <clipPath id="clip-path-4">
      <circle id="Ellipse_32" data-name="Ellipse 32" cx="26.5" cy="26.5" r="26.5" transform="matrix(0.661, -0.75, 0.75, 0.661, 418.365, 131.195)" fill="#fff" stroke="#263238" stroke-linecap="round" stroke-linejoin="round" stroke-width="1.191"/>
    </clipPath>
    <clipPath id="clip-path-5">
      <path id="Path_1209" data-name="Path 1209" d="M461.548,159.535s-10.293-2.774-14.345,4.956.521,26.971.521,26.971-7.523,12.22-9.433,13.549-7.283.745-12.585,3.451-3.547,5.47-2.142,6.4,5.728-1.852,7.034-1.75,1.127,2.387-3.877,7.579-7.313,5.34-5.86,7.753a3.715,3.715,0,0,0,3.966,1.788,2.557,2.557,0,0,0,1.4,3.065c2.058.982,2.937.229,2.937.229s-.2,2.612,1.7,3.417a8.189,8.189,0,0,0,4.6.031s1.806,2.111,3.64,1.762,6.008-5.442,9.3-9.783,16-19.769,21-29.23,2.634-19.007,1.611-24.834S465.388,160.821,461.548,159.535Z" fill="#fff" stroke="#263238" stroke-linecap="round" stroke-linejoin="round" stroke-width="1.191"/>
    </clipPath>
    <clipPath id="clip-path-6">
      <path id="Path_1220" data-name="Path 1220" d="M370.9,163.129s4.155,11.984,9.5,12.894,12.791-8.2,14.306-14.975-3.8-12.284-11.479-19.124-18.7-10.82-27.968-5.632-23.076,20.037-23.076,20.037-8.6-7.569-13.18-3.656,1.388,15.872,5.6,20.8,11.864,12.092,19.224,10.368,13.2-15.554,17.952-19.616S369.845,161.9,370.9,163.129Z" fill="#fff" stroke="#263238" stroke-linecap="round" stroke-linejoin="round" stroke-width="1.191"/>
    </clipPath>
    <clipPath id="clip-path-7">
      <path id="Path_1229" data-name="Path 1229" d="M394.966,205.633s12.167,3.58,16.014-.244,4.4-15.431-3.877-20.344c-5.973-3.545-12.208-4.041-22.234-1.766s-19.668,8.931-20.833,19.492,2.9,30.423,2.9,30.423-11.16,2.606-10.633,8.6,13.725,8.091,20.183,7.524,16.735-2.631,19.607-9.623-4.99-19.782-5.537-26.009S393.351,205.775,394.966,205.633Z" fill="#fff" stroke="#263238" stroke-linecap="round" stroke-linejoin="round" stroke-width="1.191"/>
    </clipPath>
  </defs>
  <g id="Group_1555" data-name="Group 1555" transform="translate(-792.803 -286.974)">
    <g id="Group_917" data-name="Group 917" transform="translate(792.803 302.969)">
      <rect id="Rectangle_2614" data-name="Rectangle 2614" width="73.197" height="62.329" rx="12.24" fill="#407ffe"/>
      <g id="Group_916" data-name="Group 916" transform="translate(19.331 12.957)">
        <path id="Path_1147" data-name="Path 1147" d="M545.1,110.952A12.649,12.649,0,1,1,557.753,98.3,12.662,12.662,0,0,1,545.1,110.952Zm0-22.431a9.783,9.783,0,1,0,9.783,9.783A9.793,9.793,0,0,0,545.1,88.521Z" transform="translate(-532.456 -85.655)" fill="#fefef4"/>
        <rect id="Rectangle_2615" data-name="Rectangle 2615" width="2.866" height="5.281" transform="translate(19.552 21.606) rotate(-45)" fill="#fefef4"/>
        <rect id="Rectangle_2616" data-name="Rectangle 2616" width="14.465" height="6.339" rx="2.892" transform="translate(31.56 36.07) rotate(-135)" fill="#fefef4"/>
      </g>
    </g>
    <g id="Group_966" data-name="Group 966" transform="translate(638.984 224.35)">
      <g id="Group_965" data-name="Group 965">
        <path id="Path_1175" data-name="Path 1175" d="M439.073,107.827h0a3.488,3.488,0,0,1,1.091-4.809l5.664-3.57a3.488,3.488,0,0,1,4.809,1.091h0a3.487,3.487,0,0,1-1.091,4.809l-5.664,3.57A3.488,3.488,0,0,1,439.073,107.827Z" fill="#fff" stroke="#263238" stroke-linecap="round" stroke-linejoin="round" stroke-width="1.191"/>
        <g id="Group_942" data-name="Group 942">
          <g id="Group_939" data-name="Group 939">
            <path id="Path_1176" data-name="Path 1176" d="M435.993,132.327a39.78,39.78,0,0,0-9.852-9.82,145.34,145.34,0,0,0-15.552-8.054l-3.236-18.024a61.055,61.055,0,0,0,8.285-9.8c2.92-4.707,1.955-7.872.127-11.132s-4.465-1.145-4.846.343a33.007,33.007,0,0,0-.52,4.751S408.652,68.6,407.64,65.864s-4.85-.1-4.513.806c0,0-1.157-3.4-3.556-3.449s-3.065,4.035-3.065,4.035-3.068-1.417-4.793.361-.9,6.239-.9,6.239-2.734,1.012-3.159,4.9-.079,10.7,1.027,12.57a19.808,19.808,0,0,1,1.444,2.78c-1.355,16.237-1.308,15.166-1.707,21.648-.281,4.559,2.711,15.158,7.036,19.566s19.644,12.2,19.644,12.2S431.068,143.371,435.993,132.327Z" fill="#fff"/>
            <g id="Group_938" data-name="Group 938" clip-path="url(#clip-path)">
              <path id="Path_1177" data-name="Path 1177" d="M415.1,147.523s15.971-4.152,20.9-15.2c0,0-.32-.47-.887-1.213l-4.164-3.47a140.089,140.089,0,0,0-17.562,2.6c-8.782,1.952-15.612-2.277-18.214-12.034s-5.042-24.107-5.042-24.107h0c-1.355,16.237-1.308,15.166-1.707,21.648-.281,4.559,2.711,15.158,7.036,19.566S415.1,147.523,415.1,147.523Z" fill="#407ffe"/>
            </g>
            <path id="Path_1180" data-name="Path 1180" d="M435.993,132.327a39.78,39.78,0,0,0-9.852-9.82,145.34,145.34,0,0,0-15.552-8.054l-3.236-18.024a61.055,61.055,0,0,0,8.285-9.8c2.92-4.707,1.955-7.872.127-11.132s-4.465-1.145-4.846.343a33.007,33.007,0,0,0-.52,4.751S408.652,68.6,407.64,65.864s-4.85-.1-4.513.806c0,0-1.157-3.4-3.556-3.449s-3.065,4.035-3.065,4.035-3.068-1.417-4.793.361-.9,6.239-.9,6.239-2.734,1.012-3.159,4.9-.079,10.7,1.027,12.57a19.808,19.808,0,0,1,1.444,2.78c-1.355,16.237-1.308,15.166-1.707,21.648-.281,4.559,2.711,15.158,7.036,19.566s19.644,12.2,19.644,12.2S431.068,143.371,435.993,132.327Z" fill="none" stroke="#263238" stroke-linecap="round" stroke-linejoin="round" stroke-width="1.191"/>
          </g>
          <path id="Path_1181" data-name="Path 1181" d="M409.333,107.459l-1.98-11.03a61.106,61.106,0,0,0,8.285-9.8c2.92-4.707,1.955-7.872.127-11.132s-4.465-1.145-4.846.343a33.007,33.007,0,0,0-.52,4.751S408.652,68.6,407.64,65.864s-4.85-.1-4.513.806c0,0-1.157-3.4-3.556-3.449s-3.065,4.035-3.065,4.035-3.068-1.417-4.793.361-.9,6.239-.9,6.239-2.734,1.012-3.159,4.9-.079,10.7,1.027,12.57a19.808,19.808,0,0,1,1.444,2.78c-.6,7.179-.924,10.972-1.135,13.533Z" fill="#fff" stroke="#263238" stroke-linecap="round" stroke-linejoin="round" stroke-width="1.191"/>
          <path id="Path_1182" data-name="Path 1182" d="M393.375,132.582a18.456,18.456,0,0,0,1.206,1.737c4.222-3.524,13.725-11.99,17.965-19.273-1.2-.378-1.957-.593-1.957-.593S401.746,126,393.375,132.582Z" fill="#fff" stroke="#263238" stroke-linecap="round" stroke-linejoin="round" stroke-width="1.191"/>
          <g id="Group_940" data-name="Group 940">
            <path id="Path_1183" data-name="Path 1183" d="M410.4,80.59s-9.456-.352-10.45,7.621" fill="none" stroke="#263238" stroke-linecap="round" stroke-linejoin="round" stroke-width="1.191"/>
            <line id="Line_704" data-name="Line 704" x2="0.32" y2="10.047" transform="translate(403.127 66.67)" fill="none" stroke="#263238" stroke-linecap="round" stroke-linejoin="round" stroke-width="1.191"/>
            <line id="Line_705" data-name="Line 705" x2="0.652" y2="9.094" transform="translate(396.506 67.256)" fill="none" stroke="#263238" stroke-linecap="round" stroke-linejoin="round" stroke-width="1.191"/>
            <line id="Line_706" data-name="Line 706" x2="1.02" y2="5.67" transform="translate(390.812 73.856)" fill="none" stroke="#263238" stroke-linecap="round" stroke-linejoin="round" stroke-width="1.191"/>
            <path id="Path_1184" data-name="Path 1184" d="M405.342,76.246s-10.667,1.768-14.782,5.286" fill="none" stroke="#263238" stroke-linecap="round" stroke-linejoin="round" stroke-width="1.191"/>
          </g>
          <g id="Group_941" data-name="Group 941">
            <path id="Path_1185" data-name="Path 1185" d="M402.868,139.279c3.482-2.978,3.2-9.017-.619-13.489-3.7-4.321-9.344-5.585-12.862-2.979,1.189,4.6,3.368,9.758,6.066,12.508a38.931,38.931,0,0,0,6.334,4.7A6.543,6.543,0,0,0,402.868,139.279Z" fill="#407ffe"/>
            <path id="Path_1186" data-name="Path 1186" d="M402.868,139.279c3.482-2.978,3.2-9.017-.619-13.489-3.7-4.321-9.344-5.585-12.862-2.979,1.189,4.6,3.368,9.758,6.066,12.508a38.931,38.931,0,0,0,6.334,4.7A6.543,6.543,0,0,0,402.868,139.279Z" fill="#407ffe" stroke="#263238" stroke-linecap="round" stroke-linejoin="round" stroke-width="1.191"/>
          </g>
        </g>
        <g id="Group_944" data-name="Group 944">
          <path id="Path_1187" data-name="Path 1187" d="M396.041,150.971s-4.471.472-5.878,1.676-12.141,10.382-13.88,15.829,4.871,21.728,12.1,28.039,16.232,12.926,23.893,11.554,16.463-13.164,17.371-16.377-29.058-40.037-29.058-40.037S398.453,149.517,396.041,150.971Z" fill="#fff"/>
          <g id="Group_943" data-name="Group 943" clip-path="url(#clip-path-2)">
            <path id="Path_1188" data-name="Path 1188" d="M396.041,150.971s-.874.093-1.97.3l1.041,1.685s-.922,9.489,5.583,20.222,17.888,17.563,17.563,21.466.976,9.106-8.781,8.456a11.016,11.016,0,0,1-2.841-.613c-8.676-2.859-17.636-17.332-20.9-24.756-1.86-4.228-3.457-10.651-5.293-15.618a21.045,21.045,0,0,0-4.158,6.363c-1.739,5.447,4.871,21.727,12.1,28.039s16.232,12.926,23.893,11.554,16.463-13.164,17.371-16.377-29.058-40.037-29.058-40.037S398.453,149.518,396.041,150.971Z" fill="#407ffe"/>
          </g>
          <path id="Path_1191" data-name="Path 1191" d="M396.041,150.971s-4.471.472-5.878,1.676-12.141,10.382-13.88,15.829,4.871,21.728,12.1,28.039,16.232,12.926,23.893,11.554,16.463-13.164,17.371-16.377-29.058-40.037-29.058-40.037S398.453,149.517,396.041,150.971Z" fill="none" stroke="#263238" stroke-linecap="round" stroke-linejoin="round" stroke-width="1.191"/>
        </g>
        <g id="Group_950" data-name="Group 950">
          <g id="Group_948" data-name="Group 948">
            <path id="Path_1192" data-name="Path 1192" d="M434.226,129.156s-4.744-1.6-11.8,1.4-24.726,13.377-27.317,22.4c-1.7,5.937,17.029,33.624,28.691,38.18,3.147,1.229,5.992,2.552,12.429-2.685s19.915-19.786,23.443-26.205-1.964-11.189-3.848-14.019S439.183,127.042,434.226,129.156Z" fill="#fff"/>
            <g id="Group_947" data-name="Group 947" clip-path="url(#clip-path-3)">
              <g id="Group_945" data-name="Group 945">
                <path id="Path_1193" data-name="Path 1193" d="M459.717,162.158l-12.187,3.865s-12.685,14.961-17.238,18.864-18.864-5.53-23.743-10.083c-.524-.489-1-.929-1.443-1.34,5.824,7.914,13.079,15.477,18.7,17.672,3.147,1.229,5.992,2.552,12.429-2.685s19.915-19.786,23.443-26.205C459.692,162.216,459.7,162.188,459.717,162.158Z" fill="#407ffe"/>
                <path id="Path_1194" data-name="Path 1194" d="M453.384,160.819l6.561.856c2.9-6.129-2.291-10.7-4.118-13.448-1.884-2.829-16.644-21.185-21.6-19.071a11.253,11.253,0,0,0-2.794-.407c-6,4.523-5.316,9.716.161,19.06C437.122,157.241,453.384,160.819,453.384,160.819Z" fill="#407ffe"/>
              </g>
              <g id="Group_946" data-name="Group 946" opacity="0.5">
                <path id="Path_1195" data-name="Path 1195" d="M459.717,162.158l-12.187,3.865s-12.685,14.961-17.238,18.864-18.864-5.53-23.743-10.083c-.524-.489-1-.929-1.443-1.34,5.824,7.914,13.079,15.477,18.7,17.672,3.147,1.229,5.992,2.552,12.429-2.685s19.915-19.786,23.443-26.205C459.692,162.216,459.7,162.188,459.717,162.158Z" fill="#fff"/>
              </g>
            </g>
            <path id="Path_1198" data-name="Path 1198" d="M434.226,129.156s-4.744-1.6-11.8,1.4-24.726,13.377-27.317,22.4c-1.7,5.937,17.029,33.624,28.691,38.18,3.147,1.229,5.992,2.552,12.429-2.685s19.915-19.786,23.443-26.205-1.964-11.189-3.848-14.019S439.183,127.042,434.226,129.156Z" fill="none" stroke="#263238" stroke-linecap="round" stroke-linejoin="round" stroke-width="1.191"/>
          </g>
          <g id="Group_949" data-name="Group 949">
            <rect id="Rectangle_2618" data-name="Rectangle 2618" width="32.358" height="27.616" rx="5.886" transform="matrix(0.589, 0.808, -0.808, 0.589, 423.945, 135.191)" fill="#fff" stroke="#263238" stroke-linecap="round" stroke-linejoin="round" stroke-width="1.191"/>
            <path id="Path_1199" data-name="Path 1199" d="M593.353,255.261C578.4,216.227,541.01,216.69,508.016,217.1c-11.373.143-22.115.276-32.023-.978-33.366-4.221-42.91-38.523-43.031-38.969a2.383,2.383,0,0,0-4.608,1.215c.1.379,10.392,37.846,47.041,42.481,10.235,1.3,21.643,1.155,32.681,1.016,32.962-.41,67.064-.832,80.827,35.1a49.409,49.409,0,0,1-8.946,49.476c-10.246,11.79-24.771,16.567-39.854,13.106-14.23-3.265-28.291-7.765-41.89-12.116-22.505-7.2-45.776-14.649-70.479-16.722-42.345-3.559-71.805,17.067-105.893,40.946-6.857,4.8-13.947,9.77-21.38,14.71l-4.227,2.819c-21.085,14.08-42.886,28.64-67.557,31.269-19.177,2.051-38.686-6.94-48.551-22.355a37.711,37.711,0,0,1-5.3-28.752A31.767,31.767,0,0,1,189.886,309c12.765-7.606,35.331-10.134,54.572-8.047l.33-4.753c-20.192-2.146-43.755.613-57.341,8.705a36.913,36.913,0,0,0-17.255,23.347,42.492,42.492,0,0,0,5.92,32.417c9.9,15.479,27.813,24.827,46.823,24.853a58.076,58.076,0,0,0,6.247-.327c25.838-2.753,49.139-18.315,69.7-32.045l4.219-2.813c7.482-4.973,14.6-9.957,21.476-14.776,33.329-23.347,62.111-43.52,102.762-40.1,24.163,2.028,47.172,9.392,69.423,16.512,13.694,4.382,27.852,8.912,42.278,12.223,16.855,3.865,33.08-1.463,44.517-14.626A54.229,54.229,0,0,0,593.353,255.261Z" fill="#fff" stroke="#263238" stroke-linecap="round" stroke-linejoin="round" stroke-width="1.191"/>
            <path id="Path_1200" data-name="Path 1200" d="M427.233,146.1a3.247,3.247,0,1,1-3.248-3.248A3.247,3.247,0,0,1,427.233,146.1Z" fill="#407ffe" stroke="#263238" stroke-linecap="round" stroke-linejoin="round" stroke-width="1.191"/>
            <path id="Path_1201" data-name="Path 1201" d="M418.418,153.525a3.247,3.247,0,1,1-3.248-3.248A3.248,3.248,0,0,1,418.418,153.525Z" fill="#407ffe" stroke="#263238" stroke-linecap="round" stroke-linejoin="round" stroke-width="1.191"/>
          </g>
        </g>
        <g id="Group_952" data-name="Group 952">
          <circle id="Ellipse_31" data-name="Ellipse 31" cx="26.5" cy="26.5" r="26.5" transform="matrix(0.661, -0.75, 0.75, 0.661, 418.365, 131.195)" fill="#fff"/>
          <g id="Group_951" data-name="Group 951" clip-path="url(#clip-path-4)">
            <path id="Path_1202" data-name="Path 1202" d="M475.908,111.626a26.53,26.53,0,0,0-3.007-2.957,26.465,26.465,0,0,1-42.617,27.367,26.49,26.49,0,1,0,45.624-24.41Z" fill="#407ffe"/>
          </g>
          <circle id="Ellipse_33" data-name="Ellipse 33" cx="26.5" cy="26.5" r="26.5" transform="matrix(0.661, -0.75, 0.75, 0.661, 418.365, 131.195)" fill="none" stroke="#263238" stroke-linecap="round" stroke-linejoin="round" stroke-width="1.191"/>
        </g>
        <g id="Group_953" data-name="Group 953">
          <line id="Line_707" data-name="Line 707" y1="6.595" x2="7.712" transform="translate(479.299 140.575)" fill="none" stroke="#263238" stroke-linecap="round" stroke-linejoin="round" stroke-width="1.191"/>
          <path id="Path_1204" data-name="Path 1204" d="M489.064,141.4a2.042,2.042,0,1,0-2.878-.225A2.041,2.041,0,0,0,489.064,141.4Z" fill="#263238"/>
        </g>
        <path id="Path_1205" data-name="Path 1205" d="M469.836,155.172h0a3.488,3.488,0,0,1,.384-4.916l5.088-4.351a3.489,3.489,0,0,1,4.917.384h0a3.488,3.488,0,0,1-.384,4.916l-5.088,4.351A3.487,3.487,0,0,1,469.836,155.172Z" fill="#fff" stroke="#263238" stroke-linecap="round" stroke-linejoin="round" stroke-width="1.191"/>
        <g id="Group_957" data-name="Group 957">
          <g id="Group_955" data-name="Group 955">
            <path id="Path_1206" data-name="Path 1206" d="M461.548,159.535s-10.293-2.774-14.345,4.956.521,26.971.521,26.971-7.523,12.22-9.433,13.549-7.283.745-12.585,3.451-3.547,5.47-2.142,6.4,5.728-1.852,7.034-1.75,1.127,2.387-3.877,7.579-7.313,5.34-5.86,7.753a3.715,3.715,0,0,0,3.966,1.788,2.557,2.557,0,0,0,1.4,3.065c2.058.982,2.937.229,2.937.229s-.2,2.612,1.7,3.417a8.189,8.189,0,0,0,4.6.031s1.806,2.111,3.64,1.762,6.008-5.442,9.3-9.783,16-19.769,21-29.23,2.634-19.007,1.611-24.834S465.388,160.821,461.548,159.535Z" fill="#fff"/>
            <g id="Group_954" data-name="Group 954" clip-path="url(#clip-path-5)">
              <path id="Path_1207" data-name="Path 1207" d="M471.022,174.89c-1.023-5.827-5.634-14.069-9.474-15.355l-.239-.056a56.273,56.273,0,0,1,4.109,26.708c-1.3,16.588-16.512,29.66-21.141,34.476-3.712,3.862-8.378,9.266-15.112,13.269a3.263,3.263,0,0,0,1.706,3.012,8.189,8.189,0,0,0,4.6.031s1.806,2.111,3.64,1.762,6.008-5.442,9.3-9.783,16-19.769,21-29.23S472.045,180.717,471.022,174.89Z" fill="#407ffe"/>
            </g>
            <path id="Path_1210" data-name="Path 1210" d="M461.548,159.535s-10.293-2.774-14.345,4.956.521,26.971.521,26.971-7.523,12.22-9.433,13.549-7.283.745-12.585,3.451-3.547,5.47-2.142,6.4,5.728-1.852,7.034-1.75,1.127,2.387-3.877,7.579-7.313,5.34-5.86,7.753a3.715,3.715,0,0,0,3.966,1.788,2.557,2.557,0,0,0,1.4,3.065c2.058.982,2.937.229,2.937.229s-.2,2.612,1.7,3.417a8.189,8.189,0,0,0,4.6.031s1.806,2.111,3.64,1.762,6.008-5.442,9.3-9.783,16-19.769,21-29.23,2.634-19.007,1.611-24.834S465.388,160.821,461.548,159.535Z" fill="none" stroke="#263238" stroke-linecap="round" stroke-linejoin="round" stroke-width="1.191"/>
          </g>
          <g id="Group_956" data-name="Group 956">
            <path id="Path_1211" data-name="Path 1211" d="M439.106,238.737c1.833-.349,6.008-5.442,9.3-9.783,1.865-2.457,6.744-8.467,11.535-14.936-3.212-11.045-12.712-14.29-16.938-15.2-1.911,2.862-3.866,5.6-4.714,6.189-1.91,1.329-7.283.745-12.585,3.451s-3.547,5.47-2.142,6.4,5.728-1.852,7.034-1.75,1.127,2.387-3.877,7.579-7.313,5.34-5.86,7.753a3.715,3.715,0,0,0,3.966,1.788,2.557,2.557,0,0,0,1.4,3.065c2.058.982,2.937.229,2.937.229s-.2,2.612,1.7,3.417a8.189,8.189,0,0,0,4.6.031S437.272,239.086,439.106,238.737Z" fill="none" stroke="#263238" stroke-linecap="round" stroke-linejoin="round" stroke-width="1.191"/>
            <path id="Path_1212" data-name="Path 1212" d="M424.827,230.233a33.644,33.644,0,0,0,9.979-7.924" fill="none" stroke="#263238" stroke-linecap="round" stroke-linejoin="round" stroke-width="1.191"/>
            <path id="Path_1213" data-name="Path 1213" d="M429.167,233.527a32.831,32.831,0,0,0,10.481-8.048" fill="none" stroke="#263238" stroke-linecap="round" stroke-linejoin="round" stroke-width="1.191"/>
            <path id="Path_1214" data-name="Path 1214" d="M435.466,236.975s5.756-4.313,8.5-7.875" fill="none" stroke="#263238" stroke-linecap="round" stroke-linejoin="round" stroke-width="1.191"/>
          </g>
          <path id="Path_1215" data-name="Path 1215" d="M471.486,194.484c.211-.764.373-1.522.511-2.276-8.384-5.592-18.944-3.757-24.576-2.127.183.874.3,1.381.3,1.381s-.333.541-.873,1.4C460.32,189.608,467.735,192.008,471.486,194.484Z" fill="#fff" stroke="#263238" stroke-linecap="round" stroke-linejoin="round" stroke-width="1.191"/>
          <path id="Path_1216" data-name="Path 1216" d="M465.644,199.594a10.151,10.151,0,0,0,2.62,2.174c.415-.706.8-1.39,1.147-2.044a28.7,28.7,0,0,0,2.923-16.286,9.518,9.518,0,0,0-5.769,2.27A9.842,9.842,0,0,0,465.644,199.594Z" fill="#407ffe" stroke="#263238" stroke-linecap="round" stroke-linejoin="round" stroke-width="1.191"/>
        </g>
        <g id="Group_960" data-name="Group 960">
          <g id="Group_959" data-name="Group 959">
            <path id="Path_1217" data-name="Path 1217" d="M370.9,163.129s4.155,11.984,9.5,12.894,12.791-8.2,14.306-14.975-3.8-12.284-11.479-19.124-18.7-10.82-27.968-5.632-23.076,20.037-23.076,20.037-8.6-7.569-13.18-3.656,1.388,15.872,5.6,20.8,11.864,12.092,19.224,10.368,13.2-15.554,17.952-19.616S369.845,161.9,370.9,163.129Z" fill="#fff"/>
            <g id="Group_958" data-name="Group 958" clip-path="url(#clip-path-6)">
              <path id="Path_1218" data-name="Path 1218" d="M382.807,166.023c-8.131-3.9-5.854-13.66-13.985-16.262s-7.481,2.927-13.986,13.335-18.538,9.757-26.669,7.155a80.647,80.647,0,0,1-7.588-2.887,34.7,34.7,0,0,0,4.026,6.108c4.213,4.926,11.864,12.092,19.224,10.368s13.2-15.554,17.952-19.616,8.064-2.326,9.117-1.1c0,0,4.155,11.984,9.5,12.894s12.791-8.2,14.306-14.975a10.3,10.3,0,0,0,.184-3.4l-.375-.084S390.938,169.925,382.807,166.023Z" fill="#407ffe"/>
            </g>
            <path id="Path_1221" data-name="Path 1221" d="M370.9,163.129s4.155,11.984,9.5,12.894,12.791-8.2,14.306-14.975-3.8-12.284-11.479-19.124-18.7-10.82-27.968-5.632-23.076,20.037-23.076,20.037-8.6-7.569-13.18-3.656,1.388,15.872,5.6,20.8,11.864,12.092,19.224,10.368,13.2-15.554,17.952-19.616S369.845,161.9,370.9,163.129Z" fill="none" stroke="#263238" stroke-linecap="round" stroke-linejoin="round" stroke-width="1.191"/>
          </g>
          <path id="Path_1222" data-name="Path 1222" d="M344.664,144.222c-6.636,5.822-12.48,12.107-12.48,12.107s-8.6-7.569-13.18-3.656,1.388,15.872,5.6,20.8,11.864,12.092,19.224,10.368c6.635-1.554,12.036-12.946,16.517-18.151A88.884,88.884,0,0,1,344.664,144.222Z" fill="none" stroke="#263238" stroke-linecap="round" stroke-linejoin="round" stroke-width="1.191"/>
          <path id="Path_1223" data-name="Path 1223" d="M366.782,134.068a21.044,21.044,0,0,0-2.455-.145,69.66,69.66,0,0,1,1.637,27.959,5.667,5.667,0,0,1,2.454-.1C369.018,154.7,369.424,142.95,366.782,134.068Z" fill="none" stroke="#263238" stroke-linecap="round" stroke-linejoin="round" stroke-width="1.191"/>
          <path id="Path_1224" data-name="Path 1224" d="M372.446,149.621a8.8,8.8,0,1,1,.969-12.4A8.8,8.8,0,0,1,372.446,149.621Z" fill="#407ffe" stroke="#263238" stroke-linecap="round" stroke-linejoin="round" stroke-width="1.191"/>
          <path id="Path_1225" data-name="Path 1225" d="M343.829,183.84a10.964,10.964,0,0,0,4.658-2.684c-4.712.785-13.413.527-21.319-8.962-7.7-9.245-7.837-16.436-7.069-20.209a4.515,4.515,0,0,0-1.1.688c-4.575,3.912,1.388,15.872,5.6,20.8S336.469,185.564,343.829,183.84Z" fill="none" stroke="#263238" stroke-linecap="round" stroke-linejoin="round" stroke-width="1.191"/>
        </g>
        <g id="Group_963" data-name="Group 963">
          <g id="Group_962" data-name="Group 962">
            <path id="Path_1226" data-name="Path 1226" d="M394.966,205.633s12.167,3.58,16.014-.244,4.4-15.431-3.877-20.344c-5.973-3.545-12.208-4.041-22.234-1.766s-19.668,8.931-20.833,19.492,2.9,30.423,2.9,30.423-11.16,2.606-10.633,8.6,13.725,8.091,20.183,7.524,16.735-2.631,19.607-9.623-4.99-19.782-5.537-26.009S393.351,205.775,394.966,205.633Z" fill="#fff"/>
            <g id="Group_961" data-name="Group 961" clip-path="url(#clip-path-7)">
              <path id="Path_1227" data-name="Path 1227" d="M394.966,205.633s12.167,3.58,16.014-.244c2.5-2.486,3.592-8.259,1.785-13.347h-.036s.976,5.2-6.18,6.5-18.863-1.3-24.067,5.2,2.276,19.84,2.927,28.622-1.3,11.708-10.082,12.684c-8.636.959-16.628-5.292-18.438-1.48,2.683,4.63,13.83,6.252,19.6,5.745,6.457-.567,16.735-2.631,19.607-9.623s-4.99-19.782-5.537-26.009S393.351,205.775,394.966,205.633Z" fill="#407ffe"/>
            </g>
            <path id="Path_1230" data-name="Path 1230" d="M394.966,205.633s12.167,3.58,16.014-.244,4.4-15.431-3.877-20.344c-5.973-3.545-12.208-4.041-22.234-1.766s-19.668,8.931-20.833,19.492,2.9,30.423,2.9,30.423-11.16,2.606-10.633,8.6,13.725,8.091,20.183,7.524,16.735-2.631,19.607-9.623-4.99-19.782-5.537-26.009S393.351,205.775,394.966,205.633Z" fill="none" stroke="#263238" stroke-linecap="round" stroke-linejoin="round" stroke-width="1.191"/>
          </g>
          <path id="Path_1231" data-name="Path 1231" d="M364.336,216c.883,8.784,2.6,17.192,2.6,17.192s-11.16,2.606-10.633,8.6,13.725,8.091,20.183,7.524,16.735-2.631,19.607-9.623c2.59-6.3-3.544-17.318-5.178-23.989A88.869,88.869,0,0,1,364.336,216Z" fill="none" stroke="#263238" stroke-linecap="round" stroke-linejoin="round" stroke-width="1.191"/>
          <path id="Path_1232" data-name="Path 1232" d="M368.92,192.1a21.541,21.541,0,0,0-1.545,1.914,69.671,69.671,0,0,1,23.709,14.911,5.651,5.651,0,0,1,1.342-2.057C387.012,202.266,377.684,195.11,368.92,192.1Z" fill="none" stroke="#263238" stroke-linecap="round" stroke-linejoin="round" stroke-width="1.191"/>
          <circle id="Ellipse_34" data-name="Ellipse 34" cx="8.798" cy="8.798" r="8.798" transform="translate(364.577 192.616) rotate(-22.907)" fill="#407ffe" stroke="#263238" stroke-linecap="round" stroke-linejoin="round" stroke-width="1.191"/>
          <path id="Path_1233" data-name="Path 1233" d="M396.1,239.7a10.957,10.957,0,0,0,.522-5.351c-2.1,4.291-7.364,11.224-19.68,12.146-12,.9-17.931-3.17-20.556-5.986a4.51,4.51,0,0,0-.076,1.29c.526,6,13.725,8.091,20.183,7.524S393.225,246.69,396.1,239.7Z" fill="none" stroke="#263238" stroke-linecap="round" stroke-linejoin="round" stroke-width="1.191"/>
        </g>
        <g id="Group_964" data-name="Group 964">
          <path id="Path_1234" data-name="Path 1234" d="M464.7,117.7a93.434,93.434,0,0,1-7.174-10.915A22.594,22.594,0,1,0,477.049,131,90.676,90.676,0,0,1,464.7,117.7Z" fill="#1f1f1f" stroke="#263238" stroke-linecap="round" stroke-linejoin="round" stroke-width="1.191"/>
          <path id="Path_1235" data-name="Path 1235" d="M466.9,138.213a7.258,7.258,0,1,1,.446-9.91A7.023,7.023,0,0,1,466.9,138.213Z" fill="#fff"/>
          <path id="Path_1236" data-name="Path 1236" d="M459.462,121.458a2.157,2.157,0,1,1,.238-3.041A2.157,2.157,0,0,1,459.462,121.458Z" fill="#fff"/>
        </g>
      </g>
      <rect id="Rectangle_2619" data-name="Rectangle 2619" width="6.451" height="9.317" transform="translate(239.465 293.289) rotate(5.622)" fill="#263238"/>
    </g>
  </g>
</svg>
