<svg xmlns="http://www.w3.org/2000/svg" width="21.997" height="11.588" viewBox="0 0 21.997 11.588">
  <g id="Group_1546" data-name="Group 1546" transform="translate(-940.25 -220)">
    <line id="Line_10" data-name="Line 10" x2="10" transform="translate(941 220.838)" fill="none" stroke="#c40007" stroke-linecap="round" stroke-width="1.5"/>
    <line id="Line_11" data-name="Line 11" x2="10" transform="translate(941 225.838)" fill="none" stroke="#c40007" stroke-linecap="round" stroke-width="1.5"/>
    <line id="Line_12" data-name="Line 12" x2="10" transform="translate(941 230.838)" fill="none" stroke="#c40007" stroke-linecap="round" stroke-width="1.5"/>
    <path id="Icon_ionic-ios-arrow-round-down" data-name="Icon ionic-ios-arrow-round-down" d="M18.6,15.043a.51.51,0,0,0-.718,0L15.5,17.409V8.379a.508.508,0,0,0-1.015,0v9.03l-2.378-2.374a.514.514,0,0,0-.718,0,.505.505,0,0,0,0,.714l3.24,3.217h0a.57.57,0,0,0,.16.105.484.484,0,0,0,.2.039.509.509,0,0,0,.355-.144l3.24-3.217A.5.5,0,0,0,18.6,15.043Z" transform="translate(973.494 239.115) rotate(180)" fill="#c40007"/>
  </g>
</svg>
