<svg xmlns="http://www.w3.org/2000/svg" width="21.996" height="11.586" viewBox="0 0 21.996 11.586">
  <g id="Group_1545" data-name="Group 1545" transform="translate(-657.25 -211.381)">
    <line id="Line_6" data-name="Line 6" x2="10" transform="translate(658 212.217)" fill="none" stroke="#707070" stroke-linecap="round" stroke-width="1.5"/>
    <line id="Line_7" data-name="Line 7" x2="10" transform="translate(658 217.217)" fill="none" stroke="#707070" stroke-linecap="round" stroke-width="1.5"/>
    <line id="Line_8" data-name="Line 8" x2="10" transform="translate(658 222.217)" fill="none" stroke="#707070" stroke-linecap="round" stroke-width="1.5"/>
    <path id="Icon_ionic-ios-arrow-round-down" data-name="Icon ionic-ios-arrow-round-down" d="M18.6,15.043a.51.51,0,0,0-.718,0L15.5,17.409V8.379a.508.508,0,0,0-1.015,0v9.03l-2.378-2.374a.514.514,0,0,0-.718,0,.505.505,0,0,0,0,.714l3.24,3.217h0a.57.57,0,0,0,.16.105.484.484,0,0,0,.2.039.509.509,0,0,0,.355-.144l3.24-3.217A.5.5,0,0,0,18.6,15.043Z" transform="translate(660.502 203.506)" fill="#727272"/>
  </g>
</svg>
