<svg id="Group_17" data-name="Group 17" xmlns="http://www.w3.org/2000/svg" width="94.929" height="25.277" viewBox="0 0 94.929 25.277">
  <path id="Path_24" data-name="Path 24" d="M1249.777,659.323a11.363,11.363,0,1,1-7.446,19.947l1.5-.972a9.662,9.662,0,1,0-.827-14.5l-1.456-.946q.1-.1.2-.2a11.329,11.329,0,0,1,8.035-3.328Zm-14.03,2.4,13.167,8.057a1.8,1.8,0,0,1,0,3.079l-13.167,8.057a1.8,1.8,0,0,1-2.747-1.539V663.262a1.8,1.8,0,0,1,2.747-1.54Zm14.03,2.261a6.7,6.7,0,1,1-3.255,12.563l1.7-1.106a5,5,0,1,0-1.127-8.977l-1.529-.994a6.676,6.676,0,0,1,4.21-1.487Z" transform="translate(-1233 -659.323)" fill="#c40007"/>
  <path id="Path_25" data-name="Path 25" d="M1364.01,669.437h.449a22.394,22.394,0,0,1,3.684.292v2.156H1364.5a1.7,1.7,0,0,0-1.292.461,1.766,1.766,0,0,0-.438,1.269v8h-3.055V673.5q0-4.066,4.29-4.066Zm8.176.18v7.7a1.708,1.708,0,0,0,1.954,1.909h.629a14.466,14.466,0,0,0,2-.135v-9.479h3.055v11.568a23.555,23.555,0,0,1-5.481.606h-.741q-4.47,0-4.47-4.178v-8Zm12.624,11.995h-3.055V670.043a23.553,23.553,0,0,1,5.481-.606h.809a4.659,4.659,0,0,1,3.347,1.078,4.127,4.127,0,0,1,1.123,3.122v7.974h-3.055v-7.682a1.717,1.717,0,0,0-1.954-1.932h-.7a14.963,14.963,0,0,0-2,.157v9.457Zm14.421-3.549,3.1-8.446h3.1l-4.425,11.995h-3.549l-4.425-11.995h3.1l3.1,8.446Zm7.188,3.549V669.616h3.055v11.995Zm1.527-13.5a1.822,1.822,0,0,1-1.292-.449,1.471,1.471,0,0,1-.483-1.123,1.505,1.505,0,0,1,.483-1.134,1.794,1.794,0,0,1,1.292-.461,1.826,1.826,0,0,1,1.314.461,1.505,1.505,0,0,1,.483,1.134,1.471,1.471,0,0,1-.483,1.123,1.854,1.854,0,0,1-1.314.449Zm13.994-2.718v15.813a23.668,23.668,0,0,1-5.481.584h-.853q-4.47,0-4.47-4.178v-3.976a4.128,4.128,0,0,1,1.123-3.122,4.66,4.66,0,0,1,3.347-1.078h.831a18.38,18.38,0,0,1,2.448.2v-4.245Zm-7.749,8.536v3.392a1.718,1.718,0,0,0,1.954,1.932h.652a15.811,15.811,0,0,0,2.089-.135v-6.963A12.767,12.767,0,0,0,1416.8,672h-.652a1.718,1.718,0,0,0-1.954,1.932Z" transform="translate(-1327.011 -663.493)" fill="#1f1f1f"/>
  <path id="Path_26" data-name="Path 26" d="M1363,745.658l.991-2.719h.769l-1.326,3.622h-.867l-1.326-3.622h.769l.991,2.719Zm4.9.9h-.743v-3.622h.743v3.622Zm4.36,0h-1.667v-3.622h1.667a1.366,1.366,0,0,1,.973.291,1.288,1.288,0,0,1,.3.957v1.13a1.279,1.279,0,0,1-.3.952,1.365,1.365,0,0,1-.973.292Zm-.923-.619h.846a.637.637,0,0,0,.462-.145.67.67,0,0,0,.147-.49V744.2a.68.68,0,0,0-.147-.493.631.631,0,0,0-.462-.147h-.846v2.383Zm7.223.619h-2.435v-3.622h2.409v.6h-1.666v.851h1.563v.6h-1.563v.965h1.692v.6Zm4.329.041h-.588a1.363,1.363,0,0,1-.973-.291,1.278,1.278,0,0,1-.3-.952v-1.213a1.286,1.286,0,0,1,.3-.957,1.363,1.363,0,0,1,.973-.291h.588a1.364,1.364,0,0,1,.973.291,1.287,1.287,0,0,1,.3.957v1.213a1.279,1.279,0,0,1-.3.952,1.364,1.364,0,0,1-.973.291Zm-.511-.619h.433a.637.637,0,0,0,.462-.144.671.671,0,0,0,.147-.49v-1.192a.68.68,0,0,0-.147-.492.63.63,0,0,0-.462-.147h-.433a.63.63,0,0,0-.462.147.68.68,0,0,0-.147.492v1.192a.671.671,0,0,0,.147.49.637.637,0,0,0,.462.144Zm8.2.578h-.743v-3.622h.743v1.5H1392v-1.5h.743v3.622H1392v-1.5h-1.424v1.5Zm6.625.041h-.588a1.365,1.365,0,0,1-.973-.291,1.28,1.28,0,0,1-.3-.952v-1.213a1.287,1.287,0,0,1,.3-.957,1.365,1.365,0,0,1,.973-.291h.588a1.363,1.363,0,0,1,.972.291,1.286,1.286,0,0,1,.3.957v1.213a1.278,1.278,0,0,1-.3.952,1.363,1.363,0,0,1-.972.291Zm-.511-.619h.433a.637.637,0,0,0,.462-.144.671.671,0,0,0,.147-.49v-1.192a.68.68,0,0,0-.147-.492.631.631,0,0,0-.462-.147h-.433a.631.631,0,0,0-.462.147.68.68,0,0,0-.147.492v1.192a.671.671,0,0,0,.147.49.637.637,0,0,0,.462.144Zm5.438-1.661.774.16a1.107,1.107,0,0,1,.652.33,1.069,1.069,0,0,1,.188.686v.2q0,.908-1.063.908h-.495a5.534,5.534,0,0,1-1.016-.077v-.542h1.383q.449,0,.449-.366v-.139a.313.313,0,0,0-.114-.26.889.889,0,0,0-.366-.142l-.67-.139a1.173,1.173,0,0,1-.65-.309.9.9,0,0,1-.2-.624v-.2q0-.9,1.063-.9h.444a5.426,5.426,0,0,1,1.016.077v.542H1402.3a.847.847,0,0,0-.418.077.3.3,0,0,0-.129.279v.083a.319.319,0,0,0,.088.24.581.581,0,0,0,.289.127Zm3.756-.764v-.619h2.946v.619h-1.1v3h-.738v-3Zm6.073,3h-.743v-3.622h.743v3.622Zm4.855-3.622h.743v3.622h-.789l-1.372-2.42v2.42h-.743v-3.622h.789l1.372,2.42v-2.42Zm4.69,3.044h.831v-.9h-.738v-.619h1.455v2.043a6.14,6.14,0,0,1-1.115.093h-.511a1.363,1.363,0,0,1-.972-.291,1.279,1.279,0,0,1-.3-.952v-1.213a1.287,1.287,0,0,1,.3-.957,1.363,1.363,0,0,1,.972-.291h.423a5.734,5.734,0,0,1,.965.077v.542h-1.31a.625.625,0,0,0-.459.15.674.674,0,0,0-.149.49v1.192a.664.664,0,0,0,.149.487.633.633,0,0,0,.459.147Z" transform="translate(-1328.139 -721.325)" fill="#aaaaad"/>
</svg>
