<svg xmlns="http://www.w3.org/2000/svg" xmlns:xlink="http://www.w3.org/1999/xlink" width="15" height="28" viewBox="0 0 15 28">
  <defs>
    <clipPath id="clip-path">
      <rect width="15" height="28" fill="none"/>
    </clipPath>
  </defs>
  <g id="Repeat_Grid_1" data-name="Repeat Grid 1" clip-path="url(#clip-path)">
    <g transform="translate(-430 -259)">
      <circle id="Ellipse_6" data-name="Ellipse 6" cx="1.5" cy="1.5" r="1.5" transform="translate(430 259)" fill="#e3e3e3"/>
    </g>
    <g transform="translate(-424 -259)">
      <circle id="Ellipse_6-2" data-name="Ellipse 6" cx="1.5" cy="1.5" r="1.5" transform="translate(430 259)" fill="#e3e3e3"/>
    </g>
    <g transform="translate(-418 -259)">
      <circle id="Ellipse_6-3" data-name="Ellipse 6" cx="1.5" cy="1.5" r="1.5" transform="translate(430 259)" fill="#e3e3e3"/>
    </g>
    <g transform="translate(-430 -253)">
      <circle id="Ellipse_6-4" data-name="Ellipse 6" cx="1.5" cy="1.5" r="1.5" transform="translate(430 259)" fill="#e3e3e3"/>
    </g>
    <g transform="translate(-424 -253)">
      <circle id="Ellipse_6-5" data-name="Ellipse 6" cx="1.5" cy="1.5" r="1.5" transform="translate(430 259)" fill="#e3e3e3"/>
    </g>
    <g transform="translate(-418 -253)">
      <circle id="Ellipse_6-6" data-name="Ellipse 6" cx="1.5" cy="1.5" r="1.5" transform="translate(430 259)" fill="#e3e3e3"/>
    </g>
    <g transform="translate(-430 -247)">
      <circle id="Ellipse_6-7" data-name="Ellipse 6" cx="1.5" cy="1.5" r="1.5" transform="translate(430 259)" fill="#e3e3e3"/>
    </g>
    <g transform="translate(-424 -247)">
      <circle id="Ellipse_6-8" data-name="Ellipse 6" cx="1.5" cy="1.5" r="1.5" transform="translate(430 259)" fill="#e3e3e3"/>
    </g>
    <g transform="translate(-418 -247)">
      <circle id="Ellipse_6-9" data-name="Ellipse 6" cx="1.5" cy="1.5" r="1.5" transform="translate(430 259)" fill="#e3e3e3"/>
    </g>
    <g transform="translate(-430 -241)">
      <circle id="Ellipse_6-10" data-name="Ellipse 6" cx="1.5" cy="1.5" r="1.5" transform="translate(430 259)" fill="#e3e3e3"/>
    </g>
    <g transform="translate(-424 -241)">
      <circle id="Ellipse_6-11" data-name="Ellipse 6" cx="1.5" cy="1.5" r="1.5" transform="translate(430 259)" fill="#e3e3e3"/>
    </g>
    <g transform="translate(-418 -241)">
      <circle id="Ellipse_6-12" data-name="Ellipse 6" cx="1.5" cy="1.5" r="1.5" transform="translate(430 259)" fill="#e3e3e3"/>
    </g>
    <g transform="translate(-430 -235)">
      <circle id="Ellipse_6-13" data-name="Ellipse 6" cx="1.5" cy="1.5" r="1.5" transform="translate(430 259)" fill="#e3e3e3"/>
    </g>
    <g transform="translate(-424 -235)">
      <circle id="Ellipse_6-14" data-name="Ellipse 6" cx="1.5" cy="1.5" r="1.5" transform="translate(430 259)" fill="#e3e3e3"/>
    </g>
    <g transform="translate(-418 -235)">
      <circle id="Ellipse_6-15" data-name="Ellipse 6" cx="1.5" cy="1.5" r="1.5" transform="translate(430 259)" fill="#e3e3e3"/>
    </g>
  </g>
</svg>
