<svg xmlns="http://www.w3.org/2000/svg" width="75.847" height="18.376" viewBox="0 0 75.847 18.376">
  <g id="Group_682" data-name="Group 682" transform="translate(-143.479 -354.543)">
    <path id="Path_1079" data-name="Path 1079" d="M174.087,386.87h5.184c2.783,0,3.831,1.409,3.669,3.482-.267,3.417-2.333,5.307-5.073,5.307h-1.384c-.376,0-.628.248-.73.923l-.594,3.918c-.039.254-.172.4-.374.422h-3.25c-.306,0-.415-.234-.335-.741l1.985-12.567A.792.792,0,0,1,174.087,386.87Z" transform="translate(-23.99 -28.002)" fill="#0094cb" fill-rule="evenodd"/>
    <path id="Path_1080" data-name="Path 1080" d="M316.793,385.134c1.749,0,3.362.948,3.142,3.313-.262,2.8-1.773,4.364-4.149,4.371h-2.073c-.3,0-.443.243-.521.743l-.4,2.551c-.06.385-.258.575-.55.575h-1.93c-.308,0-.415-.2-.347-.637l1.6-10.227c.079-.5.271-.69.612-.69Zm-3.144,5.474h1.573c.983-.037,1.637-.718,1.7-1.946a1.187,1.187,0,0,0-1.287-1.3l-1.48.007-.507,3.237Zm11.534,5.3c.176-.16.356-.244.33-.046l-.063.474c-.033.247.066.379.3.379h1.715c.288,0,.429-.117.5-.563l1.057-6.633c.053-.333-.027-.5-.281-.5h-1.885c-.17,0-.253.1-.3.355l-.07.408c-.036.213-.134.25-.225.036-.32-.758-1.136-1.1-2.281-1.074a4.719,4.719,0,0,0-4.62,4.637,3.188,3.188,0,0,0,3.16,3.555,3.409,3.409,0,0,0,2.662-1.03Zm-1.435-1.019a1.723,1.723,0,0,1-1.767-2.022,2.463,2.463,0,0,1,2.368-2.022,1.723,1.723,0,0,1,1.767,2.022,2.463,2.463,0,0,1-2.368,2.022Zm8.63-5.889h-1.733c-.359,0-.5.263-.391.6l2.159,6.323-2.127,3.007c-.178.251-.041.481.21.481h1.955a.6.6,0,0,0,.581-.285l6.641-9.526c.2-.294.108-.6-.227-.6l-1.848,0c-.317,0-.445.125-.627.389L334.2,393.4l-1.232-4.026A.533.533,0,0,0,332.377,389Z" transform="translate(-144.195 -26.498)" fill="#003082" fill-rule="evenodd"/>
    <path id="Path_1081" data-name="Path 1081" d="M539.46,385.134c1.749,0,3.363.948,3.142,3.313-.262,2.8-1.773,4.364-4.149,4.371H536.38c-.3,0-.442.243-.521.743l-.4,2.551c-.06.385-.258.575-.55.575h-1.93c-.308,0-.415-.2-.347-.637l1.6-10.227c.079-.5.271-.69.612-.69Zm-3.145,5.474h1.573c.983-.037,1.637-.718,1.7-1.946a1.187,1.187,0,0,0-1.287-1.3l-1.48.007-.507,3.237Zm11.534,5.3c.176-.16.356-.244.33-.046l-.063.474c-.033.247.066.379.3.379h1.715c.288,0,.429-.117.5-.563l1.057-6.633c.053-.333-.028-.5-.281-.5h-1.885c-.17,0-.253.1-.3.355l-.07.408c-.036.213-.134.25-.225.036-.32-.758-1.136-1.1-2.281-1.074a4.719,4.719,0,0,0-4.62,4.637,3.188,3.188,0,0,0,3.16,3.555,3.409,3.409,0,0,0,2.662-1.03Zm-1.435-1.019a1.723,1.723,0,0,1-1.767-2.022,2.463,2.463,0,0,1,2.368-2.022,1.723,1.723,0,0,1,1.767,2.022,2.463,2.463,0,0,1-2.368,2.022Zm7.911,1.838h-1.98a.234.234,0,0,1-.243-.274l1.741-11.018a.342.342,0,0,1,.329-.274h1.979a.234.234,0,0,1,.243.274l-1.741,11.018A.342.342,0,0,1,554.325,396.723Z" transform="translate(-337.073 -26.498)" fill="#0094cb" fill-rule="evenodd"/>
    <path id="Path_1082" data-name="Path 1082" d="M146.856,354.543h5.189c1.461,0,3.195.047,4.354,1.07a3.513,3.513,0,0,1,1.087,2.94c-.318,3.962-2.688,6.181-5.866,6.181h-2.559c-.436,0-.724.289-.847,1.07l-.714,4.543c-.046.295-.174.468-.407.489h-3.2c-.355,0-.481-.271-.388-.859l2.3-14.572A.919.919,0,0,1,146.856,354.543Z" transform="translate(0)" fill="#003082" fill-rule="evenodd"/>
    <path id="Path_1083" data-name="Path 1083" d="M179.427,393.348l.906-5.735a.792.792,0,0,1,.9-.743h5.184a5.064,5.064,0,0,1,2.095.381c-.521,3.526-2.8,5.485-5.788,5.485h-2.559C179.83,392.736,179.578,392.908,179.427,393.348Z" transform="translate(-31.139 -28.002)" fill="#00236d" fill-rule="evenodd"/>
  </g>
</svg>
