<svg xmlns="http://www.w3.org/2000/svg" width="130.875" height="34.848" viewBox="0 0 130.875 34.848">
  <g id="Group_17" data-name="Group 17" transform="translate(0 0)">
    <path id="Path_24" data-name="Path 24" d="M1256.13,659.323a15.666,15.666,0,1,1-10.265,27.5l2.061-1.34a13.32,13.32,0,1,0-1.141-19.986l-2.007-1.3q.135-.142.274-.281a15.619,15.619,0,0,1,11.078-4.588Zm-19.343,3.308,18.153,11.108a2.488,2.488,0,0,1,0,4.245l-18.153,11.108a2.488,2.488,0,0,1-3.787-2.122V664.753a2.488,2.488,0,0,1,3.787-2.123Zm19.343,3.118a9.241,9.241,0,1,1-4.487,17.32l2.345-1.524a6.9,6.9,0,1,0-1.554-12.376l-2.108-1.37a9.2,9.2,0,0,1,5.8-2.05Z" transform="translate(-1233 -659.323)" fill="#c40007"/>
    <path id="Path_25" data-name="Path 25" d="M1365.635,671.138h.62a30.876,30.876,0,0,1,5.078.4v2.973h-5.017a2.344,2.344,0,0,0-1.781.635,2.434,2.434,0,0,0-.6,1.75v11.024h-4.212V676.743q0-5.605,5.915-5.605Zm11.272.248v10.622q0,2.633,2.694,2.632h.867a19.942,19.942,0,0,0,2.756-.186V671.385h4.211v15.948a32.479,32.479,0,0,1-7.556.836h-1.022q-6.162,0-6.162-5.76V671.385Zm17.4,16.536H1390.1V671.974a32.471,32.471,0,0,1,7.556-.836h1.115a6.423,6.423,0,0,1,4.614,1.486,5.689,5.689,0,0,1,1.549,4.3v10.993h-4.212V677.331a2.368,2.368,0,0,0-2.694-2.663h-.96a20.627,20.627,0,0,0-2.756.217v13.037Zm19.881-4.893,4.274-11.644h4.273l-6.1,16.536h-4.893l-6.1-16.536h4.273l4.273,11.644Zm9.91,4.893V671.385h4.212v16.536Zm2.106-18.612a2.512,2.512,0,0,1-1.781-.619,2.028,2.028,0,0,1-.665-1.548,2.075,2.075,0,0,1,.665-1.564,2.474,2.474,0,0,1,1.781-.635,2.517,2.517,0,0,1,1.812.635,2.076,2.076,0,0,1,.666,1.564,2.028,2.028,0,0,1-.666,1.548,2.556,2.556,0,0,1-1.812.619Zm19.293-3.747v21.8a32.631,32.631,0,0,1-7.556.805h-1.177q-6.163,0-6.163-5.76v-5.481a5.692,5.692,0,0,1,1.548-4.3,6.425,6.425,0,0,1,4.615-1.486h1.146a25.343,25.343,0,0,1,3.376.279v-5.853Zm-10.684,11.768v4.676a2.368,2.368,0,0,0,2.694,2.663h.9a21.8,21.8,0,0,0,2.88-.186v-9.6a17.6,17.6,0,0,0-2.88-.217h-.9a2.368,2.368,0,0,0-2.694,2.663Z" transform="translate(-1314.625 -662.944)" fill="#1f1f1f"/>
    <path id="Path_26" data-name="Path 26" d="M1363.666,746.7l1.366-3.749h1.06l-1.828,4.994h-1.195l-1.828-4.994h1.06l1.366,3.749Zm6.757,1.245H1369.4v-4.994h1.024v4.994Zm6.01,0h-2.3v-4.994h2.3a1.884,1.884,0,0,1,1.341.4,1.775,1.775,0,0,1,.416,1.319v1.558a1.764,1.764,0,0,1-.416,1.312,1.882,1.882,0,0,1-1.341.4Zm-1.273-.854h1.166a.879.879,0,0,0,.637-.2.924.924,0,0,0,.2-.675v-1.53a.938.938,0,0,0-.2-.679.87.87,0,0,0-.637-.2h-1.166v3.286Zm9.958.854h-3.357v-4.994h3.322v.832h-2.3v1.174h2.155v.825h-2.155v1.33h2.333v.832Zm5.968.057h-.811a1.879,1.879,0,0,1-1.341-.4,1.762,1.762,0,0,1-.416-1.312v-1.672a1.772,1.772,0,0,1,.416-1.319,1.879,1.879,0,0,1,1.341-.4h.811a1.881,1.881,0,0,1,1.341.4,1.774,1.774,0,0,1,.416,1.319v1.672a1.764,1.764,0,0,1-.416,1.312,1.881,1.881,0,0,1-1.341.4Zm-.7-.853h.6a.878.878,0,0,0,.637-.2.925.925,0,0,0,.2-.675v-1.643a.937.937,0,0,0-.2-.679.869.869,0,0,0-.637-.2h-.6a.869.869,0,0,0-.637.2.938.938,0,0,0-.2.679v1.643a.926.926,0,0,0,.2.675.878.878,0,0,0,.637.2Zm11.3.8h-1.024v-4.994h1.024v2.07h1.963v-2.07h1.024v4.994h-1.024v-2.063h-1.963v2.063Zm9.133.057h-.811a1.881,1.881,0,0,1-1.341-.4,1.764,1.764,0,0,1-.416-1.312v-1.672a1.774,1.774,0,0,1,.416-1.319,1.881,1.881,0,0,1,1.341-.4h.811a1.88,1.88,0,0,1,1.34.4,1.772,1.772,0,0,1,.416,1.319v1.672a1.762,1.762,0,0,1-.416,1.312,1.88,1.88,0,0,1-1.34.4Zm-.7-.853h.6a.879.879,0,0,0,.637-.2.925.925,0,0,0,.2-.675v-1.643a.937.937,0,0,0-.2-.679.869.869,0,0,0-.637-.2h-.6a.87.87,0,0,0-.637.2.937.937,0,0,0-.2.679v1.643a.925.925,0,0,0,.2.675.879.879,0,0,0,.637.2Zm7.5-2.29,1.067.221a1.527,1.527,0,0,1,.9.455,1.474,1.474,0,0,1,.26.946v.27q0,1.252-1.465,1.252h-.682a7.636,7.636,0,0,1-1.4-.106v-.747h1.906q.619,0,.619-.5v-.192a.432.432,0,0,0-.156-.359,1.224,1.224,0,0,0-.505-.2l-.924-.192a1.618,1.618,0,0,1-.9-.427,1.24,1.24,0,0,1-.27-.861v-.277q0-1.245,1.465-1.244h.612a7.478,7.478,0,0,1,1.4.106v.747h-1.693a1.167,1.167,0,0,0-.576.107.409.409,0,0,0-.178.384v.114a.439.439,0,0,0,.121.331.8.8,0,0,0,.4.174Zm5.178-1.053v-.854h4.062v.854h-1.522v4.14h-1.017v-4.14Zm8.372,4.14h-1.024v-4.994h1.024v4.994Zm6.693-4.994h1.024v4.994h-1.088l-1.892-3.336v3.336h-1.025v-4.994h1.088l1.892,3.336v-3.336Zm6.466,4.2h1.145v-1.238h-1.017v-.853h2.006v2.817a8.465,8.465,0,0,1-1.537.128h-.7a1.88,1.88,0,0,1-1.34-.4,1.763,1.763,0,0,1-.416-1.312v-1.672a1.774,1.774,0,0,1,.416-1.319,1.88,1.88,0,0,1,1.34-.4h.583a7.9,7.9,0,0,1,1.33.106v.747h-1.807a.862.862,0,0,0-.633.206.929.929,0,0,0-.206.675v1.643a.915.915,0,0,0,.206.672.871.871,0,0,0,.633.2Z" transform="translate(-1315.605 -713.157)" fill="#aaaaad"/>
  </g>
</svg>
