<svg xmlns="http://www.w3.org/2000/svg" width="680.864" height="602.607" viewBox="0 0 680.864 602.607">
  <path id="Path_1141" data-name="Path 1141" d="M1576,659.322a232.319,232.319,0,1,1-152.225,407.814l30.568-19.871a197.533,197.533,0,1,0-16.916-296.384l-29.764-19.347q2-2.106,4.061-4.169A231.619,231.619,0,0,1,1576,659.322Zm-286.844,49.052L1558.357,873.1a36.9,36.9,0,0,1,0,62.947l-269.205,164.724A36.9,36.9,0,0,1,1233,1069.294V739.852a36.894,36.894,0,0,1,56.152-31.478ZM1576,754.607a137.032,137.032,0,1,1-66.545,256.848l34.781-22.606a102.251,102.251,0,1,0-23.045-183.532L1489.93,785a136.481,136.481,0,0,1,86.066-30.4Z" transform="matrix(-0.966, -0.259, 0.259, -0.966, 1578.498, 1556.138)" fill="#233f93" stroke="#233f93" stroke-width="4" opacity="0.05"/>
</svg>
