<svg xmlns="http://www.w3.org/2000/svg" width="53.376" height="68.656" viewBox="0 0 53.376 68.656">
  <g id="Group_1039" data-name="Group 1039" transform="translate(-330.142 -265.276) rotate(-2)">
    <g id="Group_1034" data-name="Group 1034" transform="translate(318.426 341.27)">
      <path id="Path_1117" data-name="Path 1117" d="M371.7,389.683v1.775a1.106,1.106,0,0,1-1.1,1.105H319.531a1.1,1.1,0,0,1-1.035-.727,1.014,1.014,0,0,1-.071-.379v-1.775a1.1,1.1,0,0,1,1.105-1.1h51.059A1.1,1.1,0,0,1,371.7,389.683Z" transform="translate(-318.426 -388.578)" fill="#c40007"/>
    </g>
    <g id="Group_1035" data-name="Group 1035" transform="translate(330.544 277.629)">
      <path id="Path_1118" data-name="Path 1118" d="M363.832,283.45a27.9,27.9,0,0,1-2,2.7,29.554,29.554,0,0,1-8.926,7.226c.278-1.005.551-1.974.808-2.9.626-2.241,1.182-4.214,1.637-5.8.647-2.262,1.086-3.76,1.2-4.193.979-3.541,5.161-4.043,6.418,0C363.077,280.818,363.382,281.867,363.832,283.45Z" transform="translate(-345.246 -277.629)" fill="#c40007"/>
      <path id="Path_1119" data-name="Path 1119" d="M364.07,318.176a29.53,29.53,0,0,1-24.517,16.355c.465-1.685.941-3.418,1.428-5.177.834-3.022,1.69-6.113,2.53-9.151a29.573,29.573,0,0,0,17.451-10.161c.214-.262.428-.524.631-.792.1.375.209.754.316,1.139.4,1.444.818,2.941,1.241,4.476C363.454,315.951,363.76,317.058,364.07,318.176Z" transform="translate(-339.553 -291.112)" fill="#c40007"/>
    </g>
    <g id="Group_1038" data-name="Group 1038" transform="translate(324.982 283.45)">
      <path id="Path_1120" data-name="Path 1120" d="M364.535,300.094c-.2.267-.417.529-.631.792a29.573,29.573,0,0,1-17.451,10.161c.5-1.807.995-3.594,1.476-5.337.594-2.139,1.166-4.209,1.706-6.156.176-.631.348-1.252.519-1.856a29.553,29.553,0,0,0,8.926-7.226,27.9,27.9,0,0,0,2-2.7c.315,1.1.7,2.449,1.139,4.011q.393,1.4.845,3.011C363.519,296.436,364.012,298.211,364.535,300.094Z" transform="translate(-336.933 -287.777)" fill="#fff"/>
      <g id="Group_1037" data-name="Group 1037" transform="translate(0 21.243)">
        <path id="Path_1121" data-name="Path 1121" d="M365.559,337.567a29.6,29.6,0,0,1-30.78,13.547c.364-1.321.754-2.733,1.161-4.214.5-1.818,1.032-3.744,1.577-5.733a29.53,29.53,0,0,0,24.517-16.355c1.021,3.674,2.07,7.477,3.085,11.178C365.264,336.519,365.414,337.043,365.559,337.567Z" transform="translate(-331.955 -324.812)" fill="#fff"/>
        <g id="Group_1036" data-name="Group 1036" transform="translate(0 12.755)">
          <path id="Path_1122" data-name="Path 1122" d="M366.032,356.382c-.8-2.893-1.669-6.06-2.573-9.333A29.605,29.605,0,0,1,332.68,360.6c-1.4,5.1-2.422,8.82-2.733,9.932-.059.225-.091.342-.091.342h23.821a29.663,29.663,0,0,0,13.285-11.1C366.668,358.7,366.358,357.559,366.032,356.382Z" transform="translate(-329.856 -347.049)" fill="#c40007"/>
          <path id="Path_1123" data-name="Path 1123" d="M387.724,380.329H371.385a29.663,29.663,0,0,0,13.285-11.1C386.483,375.81,387.724,380.329,387.724,380.329Z" transform="translate(-347.564 -356.507)" fill="#fff"/>
        </g>
      </g>
    </g>
  </g>
</svg>
