<svg xmlns="http://www.w3.org/2000/svg" width="111.142" height="111.142" viewBox="0 0 111.142 111.142">
  <g id="Group_967" data-name="Group 967" transform="matrix(0.966, -0.259, 0.259, 0.966, -411.759, 22.536)">
    <g id="Group_1044" data-name="Group 1044" transform="translate(397.483 107.49)">
      <path id="Path_1124" data-name="Path 1124" d="M488.23,149.982v6.309l-41.946,41.946h-7.309l-41.492-41.492v-7.216l42.039-42.039h6.216Z" transform="translate(-397.483 -107.49)" fill="#ffce00"/>
      <g id="Group_1041" data-name="Group 1041" transform="translate(4.732 4.732)">
        <path id="Path_1125" data-name="Path 1125" d="M450.476,197.792h-7.065l-36.91-36.91V153.9l37.39-37.39H450l.227.227L487.785,154.3v6.185Zm-6.421-1.552h5.779l36.4-36.4v-4.9l-36.879-36.879h-4.819l-36.481,36.481v5.7Z" transform="translate(-406.502 -116.509)" fill="#ffb600"/>
      </g>
      <g id="Group_1042" data-name="Group 1042" transform="translate(1.356 44.256)">
        <path id="Path_1126" data-name="Path 1126" d="M565.174,191.839h-1.291l-.645,1.118.645,1.118h1.291l.646-1.118Z" transform="translate(-477.627 -191.839)" fill="#ededed"/>
        <path id="Path_1127" data-name="Path 1127" d="M402,191.839h-1.291l-.645,1.118.645,1.118H402l.646-1.118Z" transform="translate(-400.067 -191.839)" fill="#ededed"/>
      </g>
      <g id="Group_1043" data-name="Group 1043" transform="translate(43.81 1.396)">
        <path id="Path_1128" data-name="Path 1128" d="M481.484,110.8v1.291l1.118.645,1.118-.645V110.8l-1.118-.645Z" transform="translate(-481.221 -110.15)" fill="#ededed"/>
        <path id="Path_1129" data-name="Path 1129" d="M480.984,274.219v1.291l1.118.645,1.118-.645v-1.291l-1.118-.646Z" transform="translate(-480.984 -187.831)" fill="#ededed"/>
      </g>
      <path id="Path_1130" data-name="Path 1130" d="M465.389,177.243l6.514-6.513a5.475,5.475,0,0,0,7.139-6.3l-4.419,4.419-3.466-.766-.765-3.466,4.419-4.419a5.475,5.475,0,0,0-6.3,7.137l-6.515,6.515-9.262-9.262.039-.039-1.1-1.1s-.874-3.118,1.306-4.978,6.124-.545,6.124-.545.083-.305-.55-.993a1.076,1.076,0,0,0-.329-.245c-6.633-3.139-12.7,1.413-14.447,3.1a2.88,2.88,0,0,0-.769,3.463l.449.449-2.757,2.758-.513-.513-3.335,3.335,4.1,4.1,3.334-3.335-.513-.513,2.758-2.758.906.906,1.1,1.1.41-.41,9.262,9.262-7.34,7.34a5.221,5.221,0,1,0,3.4,3.4l7.34-7.341,11.788,11.788a2.675,2.675,0,1,0,3.783-3.783Zm-15.412,16.128-3.282-1.016L445.932,189l2.522-2.334,3.284,1.014.764,3.353Z" transform="translate(-416.195 -130.362)" fill="#1d1d1b"/>
    </g>
  </g>
</svg>
