<svg id="chrome" xmlns="http://www.w3.org/2000/svg" width="29.688" height="29.686" viewBox="0 0 29.688 29.686">
  <path id="Path_73" data-name="Path 73" d="M61.818,5.191A14.839,14.839,0,0,1,86.3,8.126c-3.368,0-8.639,0-11.495,0-2.071,0-3.409-.046-4.856.716a6.846,6.846,0,0,0-3.434,4.509Z" transform="translate(-58.234 -0.019)" fill="#f44336"/>
  <path id="Path_74" data-name="Path 74" d="M170.842,175.836a4.934,4.934,0,1,0,4.934-4.936A4.94,4.94,0,0,0,170.842,175.836Z" transform="translate(-160.936 -160.992)" fill="#2196f3"/>
  <path id="Path_75" data-name="Path 75" d="M16.753,130.809a6.648,6.648,0,0,1-7.784-3.154c-1.354-2.338-4.936-8.574-6.561-11.411a14.863,14.863,0,0,0,9.558,22.67Z" transform="translate(0 -109.505)" fill="#4caf50"/>
  <path id="Path_76" data-name="Path 76" d="M245.469,170.838a6.758,6.758,0,0,1,1.247,8.311c-1.176,2.03-4.934,8.37-6.754,11.439a14.854,14.854,0,0,0,14.92-19.752Z" transform="translate(-226.048 -160.931)" fill="#ffc107"/>
</svg>
