<svg xmlns="http://www.w3.org/2000/svg" width="20.101" height="20.101" viewBox="0 0 20.101 20.101">
    <g id="clock" transform="translate(0 0)">
        <path id="Path_1105" data-name="Path 1105" d="M17.986,5.289A.837.837,0,0,0,17.6,6.407a8.29,8.29,0,0,1,.829,3.643,8.375,8.375,0,1,1-8.375-8.375,8.275,8.275,0,0,1,5.2,1.807.837.837,0,1,0,1.042-1.311A10.052,10.052,0,1,0,20.1,10.05a9.948,9.948,0,0,0-1-4.372.837.837,0,0,0-1.118-.389Zm0,0" transform="translate(0 0)" fill="white"/>
        <path id="Path_1106" data-name="Path 1106" d="M176.838,64a.838.838,0,0,0-.838.838V70.7a.838.838,0,0,0,.838.838h4.188a.838.838,0,0,0,0-1.675h-3.35V64.838A.838.838,0,0,0,176.838,64Zm0,0" transform="translate(-166.787 -60.65)" fill="white"/>
    </g>
</svg>   