<svg xmlns="http://www.w3.org/2000/svg" xmlns:xlink="http://www.w3.org/1999/xlink" width="62.923" height="42.135" viewBox="0 0 62.923 42.135">
  <defs>
    <linearGradient id="linear-gradient" x1="0.5" x2="0.5" y2="1" gradientUnits="objectBoundingBox">
      <stop offset="0" stop-color="#233f93"/>
      <stop offset="1" stop-color="#233f93"/>
    </linearGradient>
  </defs>
  <g id="Group_743" data-name="Group 743" transform="translate(-474.475 -441.417)">
    <g id="Group_742" data-name="Group 742" transform="translate(495.287 441.417)">
      <rect id="Rectangle_2463" data-name="Rectangle 2463" width="20.209" height="20.209" transform="matrix(0.998, 0.061, -0.061, 0.998, 1.229, 0)" fill="#fff0bc"/>
      <rect id="Rectangle_2464" data-name="Rectangle 2464" width="17.69" height="17.69" transform="translate(2.41 1.334) rotate(3.487)" fill="#ffc700"/>
      <rect id="Rectangle_2465" data-name="Rectangle 2465" width="17.433" height="17.433" transform="matrix(0.061, -0.998, 0.998, 0.061, 1.469, 18.87)" fill="#ffc700"/>
      <path id="Path_1099" data-name="Path 1099" d="M267.036,128.532a1.962,1.962,0,0,0-1.447-.684c-1-.061-2.325,1.9-3.777,1.807s-1.578-.848-3.233-.949a3.1,3.1,0,0,0-2.6,1.468l10.916.665Z" transform="translate(-248.03 -110.909)" fill="#00b5ac"/>
      <path id="Polygon_6" data-name="Polygon 6" d="M3.2,0,6.4,5.791H0Z" transform="matrix(-0.105, 0.995, -0.995, -0.105, 13.915, 7.82)" fill="#fff"/>
    </g>
    <g id="Group_740" data-name="Group 740" transform="translate(474.475 446.823)">
      <rect id="Rectangle_2457" data-name="Rectangle 2457" width="20.209" height="20.209" transform="translate(0 7.3) rotate(-21.175)" fill="#ffd9d9"/>
      <rect id="Rectangle_2458" data-name="Rectangle 2458" width="17.69" height="17.69" transform="translate(1.629 8.019) rotate(-21.175)" fill="#c40007"/>
      <rect id="Rectangle_2459" data-name="Rectangle 2459" width="17.433" height="17.433" transform="matrix(0.932, -0.361, 0.361, 0.932, 1.795, 8.093)" fill="#c40007"/>
      <path id="Path_1091" data-name="Path 1091" d="M217.393,141.771a1.962,1.962,0,0,0-1.6-.018c-.933.362-1.322,2.693-2.678,3.218s-1.788-.112-3.334.486a3.1,3.1,0,0,0-1.747,2.417l10.2-3.951Z" transform="translate(-193.884 -125.874)" fill="#00b5ac"/>
      <path id="Polygon_5" data-name="Polygon 5" d="M3.2,0,6.4,5.791H0Z" transform="matrix(0.259, 0.966, -0.966, 0.259, 15.635, 9.232)" fill="#fff"/>
    </g>
    <g id="Group_741" data-name="Group 741" transform="translate(509.206 445.16)">
      <rect id="Rectangle_2460" data-name="Rectangle 2460" width="20.209" height="20.209" transform="matrix(0.813, 0.582, -0.582, 0.813, 11.753, 0)" fill="#c0ebe9"/>
      <rect id="Rectangle_2461" data-name="Rectangle 2461" width="17.69" height="17.69" transform="matrix(0.813, 0.582, -0.582, 0.813, 12.045, 1.757)" fill="#c0ebe9"/>
      <rect id="Rectangle_2462" data-name="Rectangle 2462" width="17.433" height="17.433" transform="matrix(0.582, -0.813, 0.813, 0.582, 1.936, 16.118)" fill="#00afb5"/>
      <path id="Polygon_7" data-name="Polygon 7" d="M3.2,0,6.4,5.791H0Z" transform="translate(18.396 14.34) rotate(133)" fill="#fff"/>
    </g>
    <path id="Path_1100" data-name="Path 1100" d="M228.35,142.211a6.893,6.893,0,0,1-6.89,6.9H193.68c-.2,0-.409-.01-.608-.03a.107.107,0,0,0,.02.03h-7.937a6.445,6.445,0,0,1-.4-12.878,6.352,6.352,0,0,1-.065-.927,6.9,6.9,0,0,1,8.426-6.74,15.946,15.946,0,0,1,27.735,6.76h.608A6.892,6.892,0,0,1,228.35,142.211Z" transform="translate(300.979 333.946)" stroke="#fff" stroke-width="1" fill="url(#linear-gradient)"/>
    <path id="Path_1101" data-name="Path 1101" d="M253.915,167.037l-4.077-5.394a.675.675,0,0,0-1.076,0l-4.077,5.394a.675.675,0,0,0,.538,1.081h1.716v4.807a.674.674,0,0,0,.675.675h3.373a.674.674,0,0,0,.675-.675v-4.807h1.716A.675.675,0,0,0,253.915,167.037Z" transform="translate(255.207 307.2)" fill="#fff"/>
  </g>
</svg>
