<svg xmlns="http://www.w3.org/2000/svg" width="21.5" height="21.5" viewBox="0 0 21.5 21.5">
    <g id="Icon_ionic-ios-add-circle-outline" data-name="Icon ionic-ios-add-circle-outline" transform="translate(-3.375 -3.375)">
        <path id="Path_89" data-name="Path 89" d="M20.693,15.189h-3.85v-3.85a.827.827,0,0,0-1.654,0v3.85h-3.85a.792.792,0,0,0-.827.827.8.8,0,0,0,.827.827h3.85v3.85a.8.8,0,0,0,.827.827.823.823,0,0,0,.827-.827v-3.85h3.85a.827.827,0,1,0,0-1.654Z" transform="translate(-1.891 -1.891)" fill="#c40007"/>
        <path id="Path_90" data-name="Path 90" d="M14.125,4.822A9.3,9.3,0,1,1,7.546,7.546a9.241,9.241,0,0,1,6.579-2.724m0-1.447a10.75,10.75,0,1,0,10.75,10.75,10.748,10.748,0,0,0-10.75-10.75Z" fill="#c40007"/>
    </g>
</svg>