<svg xmlns="http://www.w3.org/2000/svg" width="28.539" height="22.39" viewBox="0 0 28.539 22.39">
  <g id="Group_1547" data-name="Group 1547" transform="translate(-446 -237.195)">
    <g id="folder" transform="translate(446 186.748)">
      <path id="Path_1332" data-name="Path 1332" d="M1.8,50.447H8.625a1.25,1.25,0,0,1,1.083.626l1.123,1.535a1.25,1.25,0,0,0,1.083.626H28.539V70.755a1.666,1.666,0,0,1-1.666,1.666H1.666A1.666,1.666,0,0,1,0,70.755V55.177a12.5,12.5,0,0,1,.59-3.8h0A1.25,1.25,0,0,1,1.8,50.447Z" fill="#cc922c"/>
      <path id="Path_1334" data-name="Path 1334" d="M0,0H21.937V9.267H0Z" transform="translate(2.597 52.947)" fill="#eff3ff"/>
      <path id="Path_1333" data-name="Path 1333" d="M27.29,64.117H20.411a1.25,1.25,0,0,0-1.137.73L18.1,67.423a1.25,1.25,0,0,1-1.137.73H0V84.008a1.666,1.666,0,0,0,1.666,1.666H26.873a1.666,1.666,0,0,0,1.666-1.666V65.367A1.25,1.25,0,0,0,27.29,64.117Z" transform="translate(0 -12.837)" fill="#ffbe4e"/>
    </g>
    <g id="Iconly_Light_Search" data-name="Iconly/Light/Search" transform="translate(454 244.195)">
      <g id="Search" transform="translate(1.389 1.389)">
        <circle id="Ellipse_739" cx="4.494" cy="4.494" r="4.494" fill="none" stroke="#c18724" stroke-linecap="round" stroke-linejoin="round" stroke-miterlimit="10" stroke-width="1.5"/>
        <path id="Line_181" d="M0,0,1.762,1.757" transform="translate(7.62 7.854)" fill="none" stroke="#c18724" stroke-linecap="round" stroke-linejoin="round" stroke-miterlimit="10" stroke-width="1.5"/>
      </g>
    </g>
  </g>
</svg>
