<svg xmlns="http://www.w3.org/2000/svg" width="37" height="37" viewBox="0 0 37 37">
  <g id="Group_1546" data-name="Group 1546" transform="translate(-1549.758 -256)">
    <rect id="Rectangle_2597" data-name="Rectangle 2597" width="37" height="37" rx="18.5" transform="translate(1549.758 256)" fill="#f3f6ff"/>
    <g id="Group_897" data-name="Group 897" transform="translate(0 -1)">
      <g id="XMLID_1750_" transform="translate(1559.686 266)">
        <g id="XMLID_1492_" transform="translate(0.073)">
          <path id="XMLID_1703_" d="M17.219,2.373a2.373,2.373,0,0,0-4.692-.5H9.236a1.664,1.664,0,0,0-1.184.49L.564,9.849a1.675,1.675,0,0,0,0,2.369L5.006,16.66a1.675,1.675,0,0,0,2.369,0l2.591-2.591a.335.335,0,0,0-.474-.474L6.9,16.186a1.006,1.006,0,0,1-1.421,0L1.037,11.744a1,1,0,0,1,0-1.421L8.526,2.836a1,1,0,0,1,.71-.294H12.48a2.355,2.355,0,0,0,.688,1.508.335.335,0,1,0,.474-.474,1.69,1.69,0,0,1-.49-1.035h.527a1.006,1.006,0,0,1,1,1v4.44a1,1,0,0,1-.294.711l-2.766,2.766a.335.335,0,0,0,.474.474l2.766-2.766a1.664,1.664,0,0,0,.491-1.184v-3.3a2.364,2.364,0,0,0,1.865-2.318ZM15.353,4V3.547a1.677,1.677,0,0,0-1.675-1.675h-.46A1.7,1.7,0,1,1,15.353,4Z" transform="translate(-0.073)" fill="#233f93" stroke="#233f93" stroke-width="1"/>
          <path id="XMLID_1704_" d="M98.213,312.355a.335.335,0,0,0-.474-.474l-.806.806a.335.335,0,0,0,0,.474l1.99,1.99a.335.335,0,1,0,.474-.474l-.777-.777.505-.505a.335.335,0,0,0-.474-.474l-.505.505-.5-.5Z" transform="translate(-93.594 -301.339)" fill="#233f93"/>
          <path id="XMLID_1745_" d="M157.9,257.734a.335.335,0,0,0,.021-.669l-1.107-.071a1.12,1.12,0,0,0,.152-.529,1.038,1.038,0,0,0-.3-.775,1.089,1.089,0,0,0-1.537.029l-.529.529h0a.335.335,0,0,0,0,.474l1.99,1.99a.335.335,0,0,0,.474-.474l-.595-.595,1.412.09Zm-2.3-1.541a.424.424,0,0,1,.59-.029.374.374,0,0,1,.105.28.462.462,0,0,1-.135.309l-.288.291-.282-.28-.281-.28Z" transform="translate(-149.328 -246.831)" fill="#233f93"/>
          <path id="XMLID_1746_" d="M279.5,134.119l.838-.838a.335.335,0,0,0-.474-.474l-.6.6-.521-.521.54-.54a.335.335,0,0,0-.474-.474l-.54.54-.521-.521.6-.6a.335.335,0,0,0-.474-.474l-.838.838a.335.335,0,0,0,0,.474l.995.995h0l.995.995a.335.335,0,0,0,.474,0Z" transform="translate(-267.669 -126.34)" fill="#233f93"/>
          <path id="XMLID_1747_" d="M221.273,192.215a.335.335,0,0,0,.237-.1l.838-.838a.335.335,0,1,0-.474-.474l-.6.6-.521-.521.54-.54a.335.335,0,1,0-.474-.474l-.54.54-.521-.521.6-.6a.335.335,0,1,0-.474-.474l-.838.838a.335.335,0,0,0,0,.474l1.99,1.99A.335.335,0,0,0,221.273,192.215Z" transform="translate(-211.617 -182.396)" fill="#233f93"/>
          <path id="XMLID_1760_" d="M310.474,371.139a.335.335,0,1,0,.237.1A.337.337,0,0,0,310.474,371.139Z" transform="translate(-299.753 -358.707)" fill="#233f93"/>
        </g>
      </g>
    </g>
  </g>
</svg>
