<svg xmlns="http://www.w3.org/2000/svg" width="39.19" height="39.201" viewBox="0 0 39.19 39.201">
    <g id="XMLID_1750_" transform="translate(0.427 0.5)">
        <g id="XMLID_1492_" transform="translate(0.073)">
        <path id="XMLID_1703_" d="M38.263,5.285A5.285,5.285,0,0,0,27.813,4.17h-7.33a3.706,3.706,0,0,0-2.638,1.092L1.166,21.938a3.731,3.731,0,0,0,0,5.276l9.895,9.895a3.73,3.73,0,0,0,5.276,0l5.771-5.771a.746.746,0,1,0-1.055-1.055l-5.771,5.771a2.241,2.241,0,0,1-3.165,0L2.221,26.159a2.238,2.238,0,0,1,0-3.166L18.9,6.318a2.224,2.224,0,0,1,1.583-.655h7.226a5.245,5.245,0,0,0,1.533,3.359A.746.746,0,1,0,30.3,7.967a3.764,3.764,0,0,1-1.092-2.3h1.173A2.241,2.241,0,0,1,32.616,7.9v9.89a2.223,2.223,0,0,1-.656,1.583L25.8,25.535a.746.746,0,1,0,1.055,1.055l6.161-6.161a3.706,3.706,0,0,0,1.093-2.638V10.448a5.266,5.266,0,0,0,4.155-5.163ZM34.108,8.907V7.9a3.735,3.735,0,0,0-3.73-3.73H29.353a3.793,3.793,0,1,1,4.755,4.737Z" transform="translate(-0.073)" fill="#233f93" stroke="#233f93" strokeWidth="1"/>
        <path id="XMLID_1704_" d="M99.905,313.057A.746.746,0,0,0,98.85,312l-1.8,1.8a.746.746,0,0,0,0,1.055l4.431,4.432a.746.746,0,0,0,1.055-1.055l-1.73-1.73,1.126-1.126a.746.746,0,0,0-1.055-1.055l-1.126,1.126-1.119-1.119Z" transform="translate(-89.616 -288.521)" fill="#233f93"/>
        <path id="XMLID_1745_" d="M162.075,260.615a.746.746,0,0,0,.047-1.491l-2.467-.157a2.5,2.5,0,0,0,.338-1.179,2.311,2.311,0,0,0-.671-1.727,2.425,2.425,0,0,0-3.424.065L154.72,257.3h0a.746.746,0,0,0,0,1.055l4.432,4.431a.746.746,0,0,0,1.055-1.055l-1.324-1.324,3.145.2Zm-5.122-3.433a.945.945,0,0,1,1.313-.065.833.833,0,0,1,.235.625,1.03,1.03,0,0,1-.3.689c-.15.15-.407.409-.643.647l-.629-.624-.626-.623Z" transform="translate(-142.979 -236.332)" fill="#233f93"/>
        <path id="XMLID_1746_" d="M282.649,138.292l1.867-1.867a.746.746,0,0,0-1.055-1.055l-1.34,1.34-1.161-1.161,1.2-1.2a.746.746,0,0,0-1.055-1.055l-1.2,1.2-1.161-1.161,1.34-1.34a.746.746,0,1,0-1.055-1.055l-1.867,1.867a.746.746,0,0,0,0,1.055l2.215,2.215h0l2.215,2.215a.746.746,0,0,0,1.055,0Z" transform="translate(-256.286 -120.966)" fill="#233f93"/>
        <path id="XMLID_1747_" d="M224.126,196.508a.746.746,0,0,0,.528-.219l1.867-1.867a.746.746,0,0,0-1.055-1.055l-1.34,1.34-1.161-1.161,1.2-1.2a.746.746,0,1,0-1.055-1.055l-1.2,1.2-1.161-1.161,1.34-1.34a.746.746,0,0,0-1.055-1.055l-1.867,1.867a.746.746,0,0,0,0,1.055l4.431,4.432A.746.746,0,0,0,224.126,196.508Z" transform="translate(-202.618 -174.637)" fill="#233f93"/>
        <path id="XMLID_1760_" d="M310.885,371.139a.746.746,0,1,0,.527.219A.752.752,0,0,0,310.885,371.139Z" transform="translate(-287.005 -343.449)" fill="#233f93"/>
        </g>
    </g>
</svg>