<svg xmlns="http://www.w3.org/2000/svg" width="20" height="20" viewBox="0 0 20 20">
    <path id="Play" d="M5.987,19.162a.724.724,0,1,1,.582-1.325,8.558,8.558,0,1,0-3.447-2.753.724.724,0,0,1-1.164.861,9.983,9.983,0,1,1,4.028,3.217ZM8.82,13.969a1.213,1.213,0,0,1-1.067-.651,4.442,4.442,0,0,1-.23-.868l0-.014A16.433,16.433,0,0,1,7.375,10a15.607,15.607,0,0,1,.163-2.526,5.615,5.615,0,0,1,.176-.707,1.2,1.2,0,0,1,.536-.591,1.273,1.273,0,0,1,.6-.145h.018a3.176,3.176,0,0,1,.8.223A14.714,14.714,0,0,1,13.6,8.909l.079.085c.09.095.21.224.238.259a1.218,1.218,0,0,1,.257.747,1.2,1.2,0,0,1-.23.708c-.036.049-.191.219-.284.318l-.049.052a15.034,15.034,0,0,1-3.848,2.629,3.712,3.712,0,0,1-.9.262Zm.141-6.236A14.873,14.873,0,0,0,8.822,10a15.235,15.235,0,0,0,.129,2.2c.011.066.03.161.05.248l.117-.045.006,0,.076-.03a13.772,13.772,0,0,0,3.347-2.282.449.449,0,0,0,.058-.059l.005-.005A.226.226,0,0,1,12.635,10l-.007-.007-.007-.007L12.537,9.9A13.736,13.736,0,0,0,9.131,7.6L9,7.55C8.98,7.636,8.969,7.694,8.961,7.733Z" fill="#c40007"/>
</svg>