<svg xmlns="http://www.w3.org/2000/svg" width="38.519" height="42.145" viewBox="0 0 38.519 42.145">
    <g id="Group_828" data-name="Group 828" transform="translate(-1114.24 -598.607)">
        <g id="Group_787" data-name="Group 787" transform="translate(1122.875 624.148)">
        <g id="Group_786" data-name="Group 786" transform="translate(0)">
            <path id="Path_1117" data-name="Path 1117" d="M147.264,312.008h-18.6a.664.664,0,0,0-.664.664v9.3a.664.664,0,0,0,.664.664h18.6a.664.664,0,0,0,.664-.664v-9.3A.664.664,0,0,0,147.264,312.008Zm-.664,9.3H129.332v-7.97H146.6Z" transform="translate(-128.004 -312.008)" fill="#233f93"/>
        </g>
        </g>
        <g id="Group_789" data-name="Group 789" transform="translate(1122.875 624.148)">
        <g id="Group_788" data-name="Group 788" transform="translate(0)">
            <path id="Path_1118" data-name="Path 1118" d="M131.325,312.008a.664.664,0,0,0-.664.664,2,2,0,0,1-1.992,1.992.664.664,0,1,0,0,1.328,3.324,3.324,0,0,0,3.321-3.321A.664.664,0,0,0,131.325,312.008Z" transform="translate(-128.004 -312.008)" fill="#233f93"/>
        </g>
        </g>
        <g id="Group_791" data-name="Group 791" transform="translate(1138.813 624.148)">
        <g id="Group_790" data-name="Group 790">
            <path id="Path_1119" data-name="Path 1119" d="M323.325,314.665a2,2,0,0,1-1.992-1.992.664.664,0,1,0-1.328,0,3.324,3.324,0,0,0,3.321,3.321.664.664,0,1,0,0-1.328Z" transform="translate(-320.004 -312.008)" fill="#233f93"/>
        </g>
        </g>
        <g id="Group_793" data-name="Group 793" transform="translate(1138.813 630.789)">
        <g id="Group_792" data-name="Group 792">
            <path id="Path_1120" data-name="Path 1120" d="M323.325,392.008A3.324,3.324,0,0,0,320,395.329a.664.664,0,1,0,1.328,0,2,2,0,0,1,1.992-1.992.664.664,0,1,0,0-1.328Z" transform="translate(-320.004 -392.008)" fill="#233f93"/>
        </g>
        </g>
        <g id="Group_795" data-name="Group 795" transform="translate(1122.875 630.789)">
        <g id="Group_794" data-name="Group 794" transform="translate(0)">
            <path id="Path_1121" data-name="Path 1121" d="M128.668,392.008a.664.664,0,1,0,0,1.328,2,2,0,0,1,1.992,1.992.664.664,0,0,0,1.328,0A3.324,3.324,0,0,0,128.668,392.008Z" transform="translate(-128.004 -392.008)" fill="#233f93"/>
        </g>
        </g>
        <g id="Group_797" data-name="Group 797" transform="translate(1129.516 626.141)">
        <g id="Group_796" data-name="Group 796">
            <path id="Path_1122" data-name="Path 1122" d="M211.325,336.008a3.321,3.321,0,1,0,3.321,3.321A3.324,3.324,0,0,0,211.325,336.008Zm0,5.313a1.992,1.992,0,1,1,1.992-1.992A1.995,1.995,0,0,1,211.325,341.321Z" transform="translate(-208.004 -336.008)" fill="#233f93"/>
        </g>
        </g>
        <g id="Group_799" data-name="Group 799" transform="translate(1122.875 633.445)">
        <g id="Group_798" data-name="Group 798" transform="translate(0)">
            <path id="Path_1123" data-name="Path 1123" d="M128.668,424.008a.664.664,0,0,0-.664.664v1.992a.664.664,0,1,0,1.328,0v-1.992A.664.664,0,0,0,128.668,424.008Z" transform="translate(-128.004 -424.008)" fill="#233f93"/>
        </g>
        </g>
        <g id="Group_801" data-name="Group 801" transform="translate(1122.875 635.439)">
        <g id="Group_800" data-name="Group 800" transform="translate(0)">
            <path id="Path_1124" data-name="Path 1124" d="M147.264,448.008h-18.6a.664.664,0,1,0,0,1.328h18.6a.664.664,0,0,0,0-1.328Z" transform="translate(-128.004 -448.008)" fill="#233f93"/>
        </g>
        </g>
        <g id="Group_803" data-name="Group 803" transform="translate(1141.471 633.445)">
        <g id="Group_802" data-name="Group 802">
            <path id="Path_1125" data-name="Path 1125" d="M352.668,424.008a.664.664,0,0,0-.664.664v1.992a.664.664,0,1,0,1.328,0v-1.992A.664.664,0,0,0,352.668,424.008Z" transform="translate(-352.004 -424.008)" fill="#233f93"/>
        </g>
        </g>
        <g id="Group_805" data-name="Group 805" transform="translate(1122.875 635.439)">
        <g id="Group_804" data-name="Group 804" transform="translate(0)">
            <path id="Path_1126" data-name="Path 1126" d="M128.668,448.008a.664.664,0,0,0-.664.664v1.992a.664.664,0,0,0,1.328,0v-1.992A.664.664,0,0,0,128.668,448.008Z" transform="translate(-128.004 -448.008)" fill="#233f93"/>
        </g>
        </g>
        <g id="Group_807" data-name="Group 807" transform="translate(1122.875 637.432)">
        <g id="Group_806" data-name="Group 806" transform="translate(0)">
            <path id="Path_1127" data-name="Path 1127" d="M147.264,472.008h-18.6a.664.664,0,1,0,0,1.328h18.6a.664.664,0,1,0,0-1.328Z" transform="translate(-128.004 -472.008)" fill="#233f93"/>
        </g>
        </g>
        <g id="Group_809" data-name="Group 809" transform="translate(1141.471 635.439)">
        <g id="Group_808" data-name="Group 808">
            <path id="Path_1128" data-name="Path 1128" d="M352.668,448.008a.664.664,0,0,0-.664.664v1.992a.664.664,0,1,0,1.328,0v-1.992A.663.663,0,0,0,352.668,448.008Z" transform="translate(-352.004 -448.008)" fill="#233f93"/>
        </g>
        </g>
        <g id="Group_811" data-name="Group 811" transform="translate(1122.875 637.432)">
        <g id="Group_810" data-name="Group 810" transform="translate(0)">
            <path id="Path_1129" data-name="Path 1129" d="M128.668,472.008a.664.664,0,0,0-.664.664v1.992a.664.664,0,0,0,1.328,0v-1.992A.664.664,0,0,0,128.668,472.008Z" transform="translate(-128.004 -472.008)" fill="#233f93"/>
        </g>
        </g>
        <g id="Group_813" data-name="Group 813" transform="translate(1122.875 639.424)">
        <g id="Group_812" data-name="Group 812" transform="translate(0)">
            <path id="Path_1130" data-name="Path 1130" d="M147.264,496.008h-18.6a.664.664,0,1,0,0,1.328h18.6a.664.664,0,0,0,0-1.328Z" transform="translate(-128.004 -496.008)" fill="#233f93"/>
        </g>
        </g>
        <g id="Group_815" data-name="Group 815" transform="translate(1141.471 637.432)">
        <g id="Group_814" data-name="Group 814">
            <path id="Path_1131" data-name="Path 1131" d="M352.668,472.008a.664.664,0,0,0-.664.664v1.992a.664.664,0,1,0,1.328,0v-1.992A.664.664,0,0,0,352.668,472.008Z" transform="translate(-352.004 -472.008)" fill="#233f93"/>
        </g>
        </g>
        <g id="Group_817" data-name="Group 817" transform="translate(1114.24 609.537)">
        <g id="Group_816" data-name="Group 816">
            <path id="Path_1132" data-name="Path 1132" d="M25.332,147.3a17.812,17.812,0,0,1,3.215-10.246.664.664,0,0,0-1.09-.76,19.266,19.266,0,0,0,0,22.008.664.664,0,1,0,1.089-.76A17.822,17.822,0,0,1,25.332,147.3Z" transform="translate(-24.004 -136.012)" fill="#233f93"/>
        </g>
        </g>
        <g id="Group_819" data-name="Group 819" transform="translate(1117.574 609.537)">
        <g id="Group_818" data-name="Group 818">
            <path id="Path_1133" data-name="Path 1133" d="M66.119,138.454l-.65-1.992a.664.664,0,0,0-1.263.412l.65,1.992a.664.664,0,0,0,.631.458.68.68,0,0,0,.207-.033A.664.664,0,0,0,66.119,138.454Z" transform="translate(-64.173 -136.003)" fill="#233f93"/>
        </g>
        </g>
        <g id="Group_821" data-name="Group 821" transform="translate(1115.568 609.537)">
        <g id="Group_820" data-name="Group 820" transform="translate(0)">
            <path id="Path_1134" data-name="Path 1134" d="M43.3,136.454a.662.662,0,0,0-.839-.422l-2.006.663a.664.664,0,0,0,.209,1.3.679.679,0,0,0,.209-.034l2.006-.663A.664.664,0,0,0,43.3,136.454Z" transform="translate(-40.003 -135.999)" fill="#233f93"/>
        </g>
        </g>
        <g id="Group_823" data-name="Group 823" transform="translate(1148.098 609.537)">
        <g id="Group_822" data-name="Group 822" transform="translate(0)">
            <path id="Path_1135" data-name="Path 1135" d="M433.06,136.29a.664.664,0,1,0-1.09.76,17.938,17.938,0,0,1,0,20.488.664.664,0,1,0,1.089.76,19.268,19.268,0,0,0,0-22.009Z" transform="translate(-431.848 -136.006)" fill="#233f93"/>
        </g>
        </g>
        <g id="Group_825" data-name="Group 825" transform="translate(1147.447 628.793)">
        <g id="Group_824" data-name="Group 824">
            <path id="Path_1136" data-name="Path 1136" d="M425.951,370.409l-.65-1.992a.664.664,0,1,0-1.263.412l.65,1.992a.664.664,0,0,0,1.263-.412Z" transform="translate(-424.005 -367.958)" fill="#233f93"/>
        </g>
        </g>
        <g id="Group_827" data-name="Group 827" transform="translate(1148.098 630.121)">
        <g id="Group_826" data-name="Group 826">
            <path id="Path_1137" data-name="Path 1137" d="M435.137,384.421A.664.664,0,0,0,434.3,384l-2.006.663a.664.664,0,1,0,.418,1.261l2.006-.663A.664.664,0,0,0,435.137,384.421Z" transform="translate(-431.835 -383.965)" fill="#233f93"/>
        </g>
        </g>
        <g id="Rectangle_2444" data-name="Rectangle 2444" transform="translate(1123.203 598.607)" fill="none" stroke="#233f93" strokeWidth="1.5">
        <rect width="19.595" height="15.785" rx="4" stroke="none"/>
        <rect x="0.75" y="0.75" width="18.095" height="14.285" rx="3.25" fill="none"/>
        </g>
        <g id="Polygon_2" data-name="Polygon 2" transform="translate(1135.723 604.049) rotate(90)" fill="none">
        <path d="M2.721,0,5.443,4.9H0Z" stroke="none"/>
        <path d="M 2.721477746963501 0 L 5.442957878112793 4.898660182952881 L -2.384185791015625e-06 4.898660182952881 L 2.721477746963501 0 Z" stroke="none" fill="#233f93"/>
        </g>
    </g>
</svg>