<svg xmlns="http://www.w3.org/2000/svg" width="37.593" height="42.32" viewBox="0 0 37.593 42.32">
  <g id="Group_1486" data-name="Group 1486" transform="translate(-399 -112.001)">
    <g id="Group_1485" data-name="Group 1485" transform="translate(399 112.001)">
      <g id="Group_1456" data-name="Group 1456" transform="translate(5.456)">
        <path id="Path_1302" data-name="Path 1302" d="M307.92,326.278V296.013a2.5,2.5,0,0,0-2.5-2.5H278.287a2.5,2.5,0,0,0-2.5,2.5v34.153a2.5,2.5,0,0,0,2.5,2.5h23.778Z" transform="translate(-275.782 -293.508)" fill="#65a7dd"/>
      </g>
      <g id="Group_1457" data-name="Group 1457" transform="translate(30.551 32.028)">
        <path id="Path_1304" data-name="Path 1304" d="M624.647,745.107H623.9v-7.324h6.739v.747h-5.992Z" transform="translate(-623.9 -737.782)" fill="#fff"/>
      </g>
      <g id="Group_1458" data-name="Group 1458" transform="translate(0 2.409)">
        <path id="Path_1305" data-name="Path 1305" d="M237.431,364.874V334.609a2.5,2.5,0,0,0-2.5-2.5H207.8a2.5,2.5,0,0,0-2.5,2.5v34.153a2.5,2.5,0,0,0,2.5,2.5h23.778Z" transform="translate(-204.919 -331.73)" fill="#fff"/>
        <path id="Path_1306" data-name="Path 1306" d="M226.93,366.832H202.988a2.882,2.882,0,0,1-2.879-2.879V329.8a2.882,2.882,0,0,1,2.879-2.879h27.128a2.882,2.882,0,0,1,2.879,2.879v30.41Zm-23.942-39.163a2.134,2.134,0,0,0-2.131,2.131v34.153a2.134,2.134,0,0,0,2.131,2.131H226.6l5.646-6.165V329.8a2.134,2.134,0,0,0-2.131-2.131Z" transform="translate(-200.109 -326.921)" fill="#e6e7ef"/>
      </g>
      <g id="Group_1459" data-name="Group 1459" transform="translate(25.905 34.766)">
        <path id="Path_1307" data-name="Path 1307" d="M560.2,782.943h-.747v-7.18h6.606v.747H560.2Z" transform="translate(-559.45 -775.764)" fill="#e6e7ef"/>
      </g>
    </g>
    <g id="Group_1460" data-name="Group 1460" transform="translate(415.05 140.493)">
      <path id="Path_1308" data-name="Path 1308" d="M434.169,689.448H423.1a.354.354,0,0,1,0-.707h11.071a.354.354,0,0,1,0,.707Z" transform="translate(-422.744 -688.741)" fill="#31364c"/>
    </g>
    <g id="Group_1461" data-name="Group 1461" transform="translate(415.05 143.724)">
      <path id="Path_1309" data-name="Path 1309" d="M434.169,734.26H423.1a.354.354,0,1,1,0-.707h11.071a.354.354,0,1,1,0,.707Z" transform="translate(-422.744 -733.553)" fill="#31364c"/>
    </g>
    <g id="Group_1462" data-name="Group 1462" transform="translate(415.05 146.787)">
      <path id="Path_1310" data-name="Path 1310" d="M429.126,776.749H423.1a.354.354,0,0,1,0-.707h6.029a.354.354,0,0,1,0,.707Z" transform="translate(-422.744 -776.042)" fill="#31364c"/>
    </g>
    <g id="Group_1482" data-name="Group 1482" transform="translate(403.222 138.383)">
      <path id="Path_1326" data-name="Path 1326" d="M284.857,659.468a4.719,4.719,0,0,0-3.294,1.335l3.294,3.4Z" transform="translate(-279.913 -659.468)" fill="#31364c"/>
      <path id="Path_1327" data-name="Path 1327" d="M259.55,701.95l3.862-2.737-3.294-3.4a4.73,4.73,0,0,0-.569,6.137Z" transform="translate(-258.677 -693.193)" fill="#31364c"/>
      <path id="Path_1328" data-name="Path 1328" d="M292.705,682.962a4.745,4.745,0,0,0-.114-.484c-.02-.068-.041-.135-.064-.2q-.075-.219-.17-.429c-.027-.061-.056-.121-.086-.18q-.1-.2-.215-.384c-.034-.055-.068-.109-.1-.162q-.134-.2-.286-.379-.06-.072-.124-.143c-.094-.1-.194-.205-.3-.3q-.069-.064-.14-.125-.161-.139-.335-.264c-.052-.037-.1-.074-.157-.109-.121-.08-.246-.156-.374-.225q-.087-.047-.176-.09a4.817,4.817,0,0,0-.467-.2c-.066-.024-.132-.047-.2-.067a4.858,4.858,0,0,0-.476-.123q-.112-.023-.226-.04a4.827,4.827,0,0,0-.547-.052c-.064,0-.129,0-.194,0a.094.094,0,0,0-.094.094v4.687l-.335.237-.914.648-2.056,1.457-.519.368a.094.094,0,0,0-.038.061.1.1,0,0,0,.016.07l.018.024c.083.116.173.227.265.334.041.048.083.095.125.141q.145.155.3.3c.047.042.095.083.143.123.122.1.248.2.379.287.053.036.108.07.163.1q.187.116.383.215c.06.03.119.059.18.086.14.063.284.119.43.169.067.023.134.044.2.064a4.778,4.778,0,0,0,.483.116c.076.014.154.025.231.035a4.766,4.766,0,0,0,.622.043h.013c.087,0,.173,0,.26-.007a4.783,4.783,0,0,0,.685-.086c.118-.024.235-.052.35-.084a4.8,4.8,0,0,0,1-.406,4.894,4.894,0,0,0,1.947-1.947,4.793,4.793,0,0,0,.406-1c.032-.115.061-.232.084-.351a4.829,4.829,0,0,0,.086-.685c0-.086.007-.172.007-.26,0,0,0-.009,0-.013a4.882,4.882,0,0,0-.043-.622Q292.726,683.076,292.705,682.962Z" transform="translate(-282.174 -677.591)" fill="#31364c"/>
    </g>
    <g id="Group_1483" data-name="Group 1483" transform="translate(406.513 118.831)">
      <path id="Path_1329" data-name="Path 1329" d="M342.355,388.255a6.856,6.856,0,0,0-4.785,1.939l4.785,4.939Z" transform="translate(-335.173 -388.255)" fill="#31364c" opacity="0.35"/>
      <path id="Path_1330" data-name="Path 1330" d="M305.592,449.969l5.611-3.977-4.785-4.939a6.872,6.872,0,0,0-.826,8.916Z" transform="translate(-304.324 -437.247)" fill="#233f93"/>
      <path id="Path_1331" data-name="Path 1331" d="M353.757,422.386a6.928,6.928,0,0,0-.166-.7q-.043-.149-.093-.294-.109-.319-.246-.623c-.04-.089-.081-.176-.125-.262q-.144-.286-.312-.557c-.049-.079-.1-.158-.152-.235q-.195-.285-.416-.551-.088-.105-.179-.207-.206-.228-.432-.438c-.067-.062-.135-.123-.2-.182q-.234-.2-.486-.384c-.075-.054-.151-.107-.228-.158-.176-.117-.357-.226-.544-.326q-.126-.068-.255-.131a6.918,6.918,0,0,0-.679-.287c-.1-.035-.191-.068-.288-.1a7.014,7.014,0,0,0-.692-.179q-.163-.033-.328-.059a7.023,7.023,0,0,0-.794-.075c-.094,0-.187-.007-.281-.007a.136.136,0,0,0-.137.137v6.808l-.486.344-1.327.94-2.987,2.117-.753.534a.136.136,0,0,0-.056.088.138.138,0,0,0,.023.1l.026.035c.121.169.251.33.385.485.06.069.12.138.182.2q.21.226.439.43.1.092.207.179c.177.147.36.288.55.416.077.052.157.1.237.15q.272.169.557.313c.086.043.173.086.261.125.2.092.413.172.625.245.1.033.194.065.293.093a6.971,6.971,0,0,0,.7.169c.111.02.223.036.335.051a6.96,6.96,0,0,0,.9.063h.019c.127,0,.252,0,.377-.01a6.965,6.965,0,0,0,.995-.125c.172-.034.342-.076.509-.122a6.976,6.976,0,0,0,1.459-.589,7.111,7.111,0,0,0,2.828-2.828,6.97,6.97,0,0,0,.589-1.459c.047-.168.088-.337.122-.509a7.024,7.024,0,0,0,.125-.995c.007-.125.01-.251.01-.377,0-.006,0-.013,0-.019a7.083,7.083,0,0,0-.062-.9Q353.787,422.551,353.757,422.386Z" transform="translate(-338.457 -414.583)" fill="#233f93"/>
    </g>
  </g>
</svg>
