<svg xmlns="http://www.w3.org/2000/svg" width="285.623" height="168.413" viewBox="0 0 285.623 168.413">
  <g id="Group_1549" data-name="Group 1549" transform="translate(-381.934 -80.793)">
    <g id="Group_1465" data-name="Group 1465" transform="translate(497.193 80.793)">
      <g id="Group_1463" data-name="Group 1463" transform="translate(0 0)">
        <path id="Path_1311" data-name="Path 1311" d="M696.642,144.59a.937.937,0,0,1-.663-1.6l6.715-6.715a.937.937,0,0,1,1.325,1.325l-6.715,6.715A.934.934,0,0,1,696.642,144.59Z" transform="translate(-695.705 -136)" fill="#65a7dd"/>
      </g>
      <g id="Group_1464" data-name="Group 1464" transform="translate(0 0)">
        <path id="Path_1312" data-name="Path 1312" d="M703.357,144.589a.934.934,0,0,1-.663-.274l-6.715-6.715a.937.937,0,0,1,1.325-1.325l6.715,6.715a.937.937,0,0,1-.663,1.6Z" transform="translate(-695.705 -136)" fill="#65a7dd"/>
      </g>
    </g>
    <g id="Group_1468" data-name="Group 1468" transform="translate(578.566 200.392)">
      <g id="Group_1466" data-name="Group 1466">
        <path id="Path_1313" data-name="Path 1313" d="M1107.341,748.217a.937.937,0,0,1-.663-1.6l6.715-6.715a.937.937,0,0,1,1.325,1.325L1108,747.943A.934.934,0,0,1,1107.341,748.217Z" transform="translate(-1106.404 -739.628)" fill="#65a7dd"/>
      </g>
      <g id="Group_1467" data-name="Group 1467">
        <path id="Path_1314" data-name="Path 1314" d="M1114.056,748.217a.934.934,0,0,1-.662-.274l-6.715-6.715A.937.937,0,0,1,1108,739.9l6.715,6.715a.937.937,0,0,1-.663,1.6Z" transform="translate(-1106.404 -739.628)" fill="#65a7dd"/>
      </g>
    </g>
    <g id="Group_1469" data-name="Group 1469" transform="translate(557.208 102.042)">
      <path id="Path_1315" data-name="Path 1315" d="M1003.16,252.355a4.555,4.555,0,1,1,4.555-4.555A4.561,4.561,0,0,1,1003.16,252.355Zm0-7.236a2.681,2.681,0,1,0,2.681,2.681A2.684,2.684,0,0,0,1003.16,245.119Z" transform="translate(-998.605 -243.245)" fill="#65a7dd"/>
    </g>
    <g id="Group_1472" data-name="Group 1472" transform="translate(658.968 91.98)">
      <g id="Group_1470" data-name="Group 1470" transform="translate(0 0)">
        <path id="Path_1316" data-name="Path 1316" d="M1513.136,201.052a.937.937,0,0,1-.662-1.6l6.715-6.715a.937.937,0,0,1,1.325,1.325l-6.715,6.715A.934.934,0,0,1,1513.136,201.052Z" transform="translate(-1512.199 -192.463)" fill="#65a7dd"/>
      </g>
      <g id="Group_1471" data-name="Group 1471" transform="translate(0 0)">
        <path id="Path_1317" data-name="Path 1317" d="M1519.851,201.052a.934.934,0,0,1-.662-.274l-6.715-6.715a.937.937,0,0,1,1.325-1.325l6.715,6.715a.937.937,0,0,1-.663,1.6Z" transform="translate(-1512.199 -192.463)" fill="#65a7dd"/>
      </g>
    </g>
    <g id="Group_1475" data-name="Group 1475" transform="translate(438.83 240.616)">
      <g id="Group_1473" data-name="Group 1473" transform="translate(0)">
        <path id="Path_1318" data-name="Path 1318" d="M402.074,951.238a.937.937,0,0,1-.663-1.6l6.715-6.715a.937.937,0,0,1,1.325,1.325l-6.715,6.715A.934.934,0,0,1,402.074,951.238Z" transform="translate(-401.137 -942.649)" fill="#65a7dd"/>
      </g>
      <g id="Group_1474" data-name="Group 1474" transform="translate(0)">
        <path id="Path_1319" data-name="Path 1319" d="M408.789,951.238a.934.934,0,0,1-.663-.274l-6.715-6.715a.937.937,0,0,1,1.325-1.325l6.715,6.715a.937.937,0,0,1-.663,1.6Z" transform="translate(-401.137 -942.649)" fill="#65a7dd"/>
      </g>
    </g>
    <g id="Group_1476" data-name="Group 1476" transform="translate(647.701 216.858)">
      <path id="Path_1320" data-name="Path 1320" d="M1458.52,829.112a3.186,3.186,0,1,1,3.186-3.186A3.19,3.19,0,0,1,1458.52,829.112Zm0-5.061a1.875,1.875,0,1,0,1.875,1.875A1.877,1.877,0,0,0,1458.52,824.051Z" transform="translate(-1455.334 -822.74)" fill="#65a7dd"/>
    </g>
    <g id="Group_1477" data-name="Group 1477" transform="translate(525.523 228.608)">
      <path id="Path_1321" data-name="Path 1321" d="M843.246,891.154A4.555,4.555,0,1,1,847.8,886.6,4.56,4.56,0,0,1,843.246,891.154Zm0-7.236a2.681,2.681,0,1,0,2.681,2.681A2.684,2.684,0,0,0,843.246,883.918Z" transform="translate(-838.691 -882.044)" fill="#65a7dd"/>
    </g>
    <g id="Group_1478" data-name="Group 1478" transform="translate(621.081 195.176)">
      <path id="Path_1322" data-name="Path 1322" d="M1339.144,715.176h-17.229a.937.937,0,0,1,0-1.874h17.229a.937.937,0,1,1,0,1.874Z" transform="translate(-1320.978 -713.302)" fill="#65a7dd"/>
    </g>
    <g id="Group_1479" data-name="Group 1479" transform="translate(574.313 105.66)">
      <path id="Path_1323" data-name="Path 1323" d="M1105.529,263.38h-19.658a.937.937,0,1,1,0-1.874h19.658a.937.937,0,1,1,0,1.874Z" transform="translate(-1084.934 -261.506)" fill="#65a7dd"/>
    </g>
    <g id="Group_1480" data-name="Group 1480" transform="translate(540.488 232.227)">
      <path id="Path_1324" data-name="Path 1324" d="M931.194,902.179H915.156a.937.937,0,0,1,0-1.874h16.038a.937.937,0,0,1,0,1.874Z" transform="translate(-914.219 -900.305)" fill="#65a7dd"/>
    </g>
    <g id="Group_1481" data-name="Group 1481" transform="translate(412.436 89.731)">
      <path id="Path_1325" data-name="Path 1325" d="M271.1,187.484a3.186,3.186,0,1,1,3.186-3.186A3.189,3.189,0,0,1,271.1,187.484Zm0-5.061a1.875,1.875,0,1,0,1.875,1.875A1.877,1.877,0,0,0,271.1,182.423Z" transform="translate(-267.919 -181.112)" fill="#65a7dd"/>
    </g>
    <g id="Group_1487" data-name="Group 1487" transform="translate(390.523 201.445)">
      <path id="Path_1321-2" data-name="Path 1321" d="M843.246,891.154A4.555,4.555,0,1,1,847.8,886.6,4.56,4.56,0,0,1,843.246,891.154Zm0-7.236a2.681,2.681,0,1,0,2.681,2.681A2.684,2.684,0,0,0,843.246,883.918Z" transform="translate(-838.691 -882.044)" fill="#65a7dd"/>
    </g>
    <g id="Group_1488" data-name="Group 1488" transform="translate(405.488 205.063)">
      <path id="Path_1324-2" data-name="Path 1324" d="M931.194,902.179H915.156a.937.937,0,0,1,0-1.874h16.038a.937.937,0,0,1,0,1.874Z" transform="translate(-914.219 -900.305)" fill="#65a7dd"/>
    </g>
    <g id="Group_1489" data-name="Group 1489" transform="translate(381.934 151)">
      <g id="Group_1473-2" data-name="Group 1473" transform="translate(0)">
        <path id="Path_1318-2" data-name="Path 1318" d="M402.074,951.238a.937.937,0,0,1-.663-1.6l6.715-6.715a.937.937,0,0,1,1.325,1.325l-6.715,6.715A.934.934,0,0,1,402.074,951.238Z" transform="translate(-401.137 -942.649)" fill="#65a7dd"/>
      </g>
      <g id="Group_1474-2" data-name="Group 1474" transform="translate(0)">
        <path id="Path_1319-2" data-name="Path 1319" d="M408.789,951.238a.934.934,0,0,1-.663-.274l-6.715-6.715a.937.937,0,0,1,1.325-1.325l6.715,6.715a.937.937,0,0,1-.663,1.6Z" transform="translate(-401.137 -942.649)" fill="#65a7dd"/>
      </g>
    </g>
  </g>
</svg>
