<svg xmlns="http://www.w3.org/2000/svg" width="38.201" height="38.201" viewBox="0 0 38.201 38.201">
    <path id="purchases" d="M38.158,33.1l-2.3-16.31H30.218V13.654a5.82,5.82,0,1,0-11.639,0v3.134H12.654L10.27,33.076A4.477,4.477,0,0,0,14.7,38.2H33.725a4.477,4.477,0,0,0,4.433-5.1ZM21.563,13.654a2.835,2.835,0,0,1,5.67,0v3.134h-5.67ZM34.852,34.7a1.472,1.472,0,0,1-1.127.514H14.7a1.492,1.492,0,0,1-1.476-1.708l2.01-13.736h3.346v2.984h2.984V19.772h5.67v2.984h2.984V19.772H33.26L35.2,33.515a1.471,1.471,0,0,1-.351,1.187ZM9.924,13.8V10.819H6.715L3,33.533a1.492,1.492,0,0,0,1.48,1.683H7.389A7.45,7.45,0,0,0,8.731,38.2H4.478a4.476,4.476,0,0,1-4.44-5.05L4.092,7.834H9.924V5.82a5.819,5.819,0,0,1,11.617-.493,8.807,8.807,0,0,0-2.962,1.727V5.82a2.835,2.835,0,1,0-5.67,0V7.834H17.8a8.808,8.808,0,0,0-1.735,2.984H12.908V13.8Zm0,0" transform="translate(-0.001)" fill="white"/>
</svg>