<svg xmlns="http://www.w3.org/2000/svg" width="44.48" height="43.026" viewBox="0 0 44.48 43.026">
  <g id="Group_1151" data-name="Group 1151" transform="translate(-478.731 -120.881)">
    <path id="Path_1238" data-name="Path 1238" d="M36.647,28.244a3.152,3.152,0,0,0,.63,3.477l.115.115a3.823,3.823,0,1,1-5.406,5.406l-.115-.115a3.177,3.177,0,0,0-5.387,2.254v.325a3.82,3.82,0,1,1-7.641,0v-.172a3.152,3.152,0,0,0-2.063-2.885,3.152,3.152,0,0,0-3.477.63l-.115.115a3.823,3.823,0,1,1-5.406-5.406l.115-.115a3.178,3.178,0,0,0-2.254-5.387H5.32a3.821,3.821,0,0,1,0-7.641h.172a3.152,3.152,0,0,0,2.884-2.063,3.152,3.152,0,0,0-.63-3.477l-.115-.115a3.823,3.823,0,1,1,5.406-5.406l.115.115a3.152,3.152,0,0,0,3.477.63h.153a3.152,3.152,0,0,0,1.91-2.885V5.321a3.82,3.82,0,1,1,7.641,0v.172a3.177,3.177,0,0,0,5.387,2.254l.115-.115a3.823,3.823,0,1,1,5.406,5.406l-.115.115a3.152,3.152,0,0,0-.63,3.477v.153a3.152,3.152,0,0,0,2.884,1.91H39.7a3.821,3.821,0,0,1,0,7.641h-.172a3.152,3.152,0,0,0-2.884,1.91Z" transform="translate(478.18 119.881)" fill="rgba(35,63,147,0.08)" stroke="#233f93" stroke-linecap="round" stroke-linejoin="round" stroke-width="1"/>
    <path id="Polygon_5" data-name="Polygon 5" d="M6.419,0l6.419,11.782H0Z" transform="translate(508.03 135.776) rotate(88)" fill="#233f93"/>
    <path id="Polygon_11" data-name="Polygon 11" d="M2.083,0,4.165,4.261H0Z" transform="translate(523.065 153.146) rotate(88)" fill="#fff"/>
    <path id="Polygon_12" data-name="Polygon 12" d="M2.227,0,4.454,4.556H0Z" transform="translate(482.636 152.22) rotate(59)" fill="#fff"/>
  </g>
</svg>
