<svg id="smartphone" xmlns="http://www.w3.org/2000/svg" width="16.822" height="29.686" viewBox="0 0 16.822 29.686">
  <g id="Group_166" data-name="Group 166" transform="translate(5.442 1.484)">
    <g id="Group_165" data-name="Group 165">
      <path id="Path_68" data-name="Path 68" d="M210.243,25.6H205.3a.495.495,0,0,0,0,.989h4.948a.495.495,0,0,0,0-.989Z" transform="translate(-204.801 -25.6)"/>
    </g>
  </g>
  <g id="Group_168" data-name="Group 168" transform="translate(13.359 1.484)">
    <g id="Group_167" data-name="Group 167">
      <path id="Path_69" data-name="Path 69" d="M342.323,25.6h-.495a.495.495,0,1,0,0,.989h.495a.495.495,0,1,0,0-.989Z" transform="translate(-341.334 -25.6)"/>
    </g>
  </g>
  <g id="Group_170" data-name="Group 170" transform="translate(6.432 25.233)">
    <g id="Group_169" data-name="Group 169">
      <path id="Path_70" data-name="Path 70" d="M224.46,435.2h-1.228a1.367,1.367,0,0,0-1.365,1.365v.239a1.366,1.366,0,0,0,1.365,1.365h1.228a1.366,1.366,0,0,0,1.365-1.365v-.239A1.367,1.367,0,0,0,224.46,435.2Zm.375,1.6a.375.375,0,0,1-.375.375h-1.229a.376.376,0,0,1-.376-.375v-.239a.376.376,0,0,1,.376-.376h1.228a.376.376,0,0,1,.376.376Z" transform="translate(-221.867 -435.2)"/>
    </g>
  </g>
  <g id="Group_172" data-name="Group 172" transform="translate(0)">
    <g id="Group_171" data-name="Group 171" transform="translate(0)">
      <path id="Path_71" data-name="Path 71" d="M125.967,0H112.722a1.791,1.791,0,0,0-1.789,1.789V27.9a1.791,1.791,0,0,0,1.789,1.789h13.245a1.791,1.791,0,0,0,1.789-1.788V1.789A1.791,1.791,0,0,0,125.967,0Zm.8,27.9a.8.8,0,0,1-.8.8H112.722a.8.8,0,0,1-.8-.8V1.789a.8.8,0,0,1,.8-.8h13.245a.8.8,0,0,1,.8.8V27.9Z" transform="translate(-110.933 0)"/>
    </g>
  </g>
  <g id="Group_174" data-name="Group 174" transform="translate(0 2.969)">
    <g id="Group_173" data-name="Group 173" transform="translate(0)">
      <path id="Path_72" data-name="Path 72" d="M127.261,51.2H111.429a.5.5,0,0,0-.495.495v20.78a.5.5,0,0,0,.495.495h15.832a.5.5,0,0,0,.495-.495V51.695A.5.5,0,0,0,127.261,51.2Zm-.495,20.78H111.923V52.19h14.843Z" transform="translate(-110.934 -51.2)"/>
    </g>
  </g>
</svg>
