<svg xmlns="http://www.w3.org/2000/svg" width="44.293" height="35.504" viewBox="0 0 44.293 35.504">
    <g id="cloud" transform="translate(0 -0.5)">
        <path id="Path_1138" data-name="Path 1138" d="M43.489,21.478a9.032,9.032,0,0,0-7.8-12.746A9.779,9.779,0,0,0,17.6,5.337a11.568,11.568,0,1,0-6.032,21.44H22.934a10.631,10.631,0,1,0,20.482-5.163,1.253,1.253,0,0,0,.073-.137ZM33.472,33.409a8.035,8.035,0,1,1,8.036-8.035A8.045,8.045,0,0,1,33.472,33.409ZM41.643,18.58a10.626,10.626,0,0,0-18.734,5.6H11.567a8.973,8.973,0,1,1,5.709-15.9,1.3,1.3,0,0,0,2.041-.542A7.218,7.218,0,0,1,26.038,3.1a7.182,7.182,0,0,1,7.179,6.993,1.3,1.3,0,0,0,1.422,1.258c.209-.02.42-.031.628-.031A6.439,6.439,0,0,1,41.7,17.749a6.569,6.569,0,0,1-.055.831Zm0,0" fill="#233f93"/>
        <path id="Path_1139" data-name="Path 1139" d="M303.251,273.048l1.941.871a1.3,1.3,0,0,1-.448,2.478,3.6,3.6,0,0,0,4.91.8,1.3,1.3,0,0,1,1.473,2.137,6.192,6.192,0,0,1-9.047-2.327.947.947,0,0,1-.378.2,1.3,1.3,0,0,1-1.321-2.156c.16-.185.783-.952,1.326-1.629a1.28,1.28,0,0,1,1.543-.372Zm0,0" transform="translate(-274.042 -248.859)" fill="#233f93"/>
        <path id="Path_1140" data-name="Path 1140" d="M359.208,223.421l1.153-1.478a1.3,1.3,0,0,0-1.492-2.007,6.2,6.2,0,0,0-8.108-2.969,1.3,1.3,0,1,0,1.06,2.369,3.6,3.6,0,0,1,4.582,1.488l-.015,0a1.3,1.3,0,1,0-.647,2.513l2.12.545a1.206,1.206,0,0,0,1.347-.459Zm0,0" transform="translate(-319.716 -197.249)" fill="#233f93"/>
    </g>
</svg>